<svg version="1.1" id="Layer_1" xmlns="http://www.w3.org/2000/svg" xmlns:xlink="http://www.w3.org/1999/xlink" x="0px" y="0px"
	 width="100%" viewBox="0 0 1346 217" enable-background="new 0 0 1346 217" xml:space="preserve">
<path fill="#FEFFFF" opacity="1.000000" stroke="none" 
	d="
M1033.000000,218.000000 
	C734.312439,218.000000 435.624878,218.000000 136.760345,217.702606 
	C149.813431,215.584503 163.176697,214.422729 176.240982,211.781876 
	C193.906723,208.210846 210.728470,202.042953 225.193192,190.776077 
	C230.659317,186.518387 235.440033,181.564377 235.870941,174.141388 
	C236.198608,168.496964 236.151596,162.809937 235.906845,157.157669 
	C235.456345,146.754715 229.268570,139.534378 219.735291,139.194397 
	C213.169998,138.960281 206.377792,139.339203 200.014130,140.835464 
	C193.776031,142.302261 187.951813,145.529343 181.947784,147.628067 
	C184.785233,145.144684 187.318649,142.130463 190.508835,141.043076 
	C204.289688,136.345871 218.261490,133.616699 232.111694,140.983139 
	C238.814316,132.248581 239.867310,122.583778 234.260498,119.258141 
	C227.800827,127.410652 219.702301,132.399261 208.807663,132.274994 
	C198.016281,132.151917 189.938431,127.096855 182.720581,117.984612 
	C181.535263,120.764862 180.165192,122.558289 180.092453,124.402870 
	C179.823593,131.221848 179.899521,138.059830 180.071350,144.884995 
	C180.097412,145.919968 181.317780,146.924896 182.104706,148.333038 
	C181.149033,155.026642 179.543518,161.296509 179.132111,167.643784 
	C178.600159,175.850540 176.354935,179.300186 168.493973,182.396408 
	C156.528839,187.109177 143.866623,187.199188 131.399750,187.817078 
	C120.336945,188.365372 109.142586,187.908051 98.108704,186.838333 
	C90.150398,186.066757 82.229683,183.998795 74.533272,181.701447 
	C67.468704,179.592712 64.428497,174.125793 64.945755,166.687897 
	C65.422600,159.831055 65.158401,153.082031 61.022255,146.991913 
	C61.446625,146.568008 61.617210,146.399277 62.044029,146.471283 
	C63.579178,149.085541 64.858086,151.459045 66.654770,154.793503 
	C67.272758,152.942383 67.849632,152.010223 67.855560,151.074463 
	C67.919907,140.911133 67.953987,130.746735 67.865593,120.583755 
	C67.828728,116.344604 65.116631,114.126984 61.504398,112.757637 
	C42.889587,133.705811 24.068050,133.492340 8.072782,111.910492 
	C5.719819,113.603661 3.359909,115.301834 0.999999,117.000000 
	C1.000000,78.407654 1.000000,39.815311 1.000000,1.000000 
	C38.020596,1.000000 75.041641,1.000000 112.349533,1.344226 
	C82.451500,6.951551 59.222416,34.390442 64.405365,68.502426 
	C69.423164,101.527519 100.814484,123.146164 133.228394,116.967766 
	C157.971283,112.251526 177.163788,92.478836 180.603729,65.903252 
	C183.501602,43.515442 172.195419,19.540852 149.411163,7.792745 
	C143.640778,4.817394 137.156326,3.226867 131.000000,1.000001 
	C187.020889,1.000000 243.041794,1.000000 299.341675,1.365408 
	C292.593506,4.231018 284.928314,5.669952 278.662903,9.437056 
	C262.083984,19.405182 258.167023,43.292065 272.322998,58.459332 
	C279.432465,66.076706 288.536194,69.711967 298.056152,72.644241 
	C307.445618,75.536308 317.122467,77.570221 326.359070,80.862183 
	C335.312531,84.053253 336.664062,94.528099 330.244354,101.644363 
	C325.160675,107.279663 318.456116,108.642807 311.994324,108.557289 
	C299.398682,108.390579 288.878113,105.523697 285.670990,90.520920 
	C284.566559,85.354530 281.556488,84.583389 277.220123,85.167847 
	C271.371124,85.956169 265.515717,86.696854 259.695679,87.453728 
	C258.748260,100.812576 269.279083,118.935730 282.943451,124.905960 
	C297.377411,131.212448 312.226013,130.716064 327.407440,128.473541 
	C346.952789,125.586372 363.565277,107.402252 359.678040,84.992073 
	C357.264221,71.076256 349.341278,61.896053 336.665924,57.230804 
	C323.895142,52.530445 310.643555,49.139370 297.612885,45.141117 
	C291.522797,43.272465 287.987427,39.295467 288.014160,34.483555 
	C288.040161,29.803316 291.079681,25.967718 297.533569,24.575434 
	C303.121704,23.369909 309.097839,22.563387 314.707642,23.227072 
	C321.107513,23.984226 327.097473,26.636581 328.650360,34.399078 
	C329.094574,36.619610 330.766541,38.594532 331.915680,40.757687 
	C340.168304,40.378365 348.388763,40.000523 356.590027,39.623562 
	C356.118469,23.312080 346.849731,10.350159 332.204193,5.180496 
	C327.853058,3.644609 323.404114,2.385780 319.000000,1.000000 
	C635.020935,1.000000 951.041809,1.000000 1267.554199,1.450852 
	C1268.045776,4.154107 1268.045776,6.406510 1268.045776,9.284248 
	C1272.483398,9.284248 1276.205688,9.284248 1280.476685,9.284248 
	C1280.476685,20.830887 1280.476685,31.747572 1280.476685,42.542213 
	C1283.938232,42.542213 1286.819580,42.542213 1289.952271,42.542213 
	C1289.952271,36.581299 1289.952271,31.091129 1289.952271,25.600960 
	C1289.952271,20.177080 1289.952271,14.753201 1289.952271,8.870415 
	C1294.357666,8.870415 1297.956543,8.870415 1302.000000,8.870415 
	C1302.000000,5.923135 1302.000000,3.461567 1302.000000,1.000000 
	C1303.388916,1.000000 1304.777832,1.000000 1306.600830,1.468400 
	C1307.034912,15.521188 1307.034912,29.105576 1307.034912,42.572796 
	C1310.426025,42.572796 1312.981323,42.572796 1315.955078,42.572796 
	C1315.955078,33.793407 1315.955078,25.440350 1315.955078,17.087292 
	C1318.056519,23.290661 1319.518311,29.533758 1321.046509,35.760574 
	C1323.020752,43.805206 1323.252319,43.933083 1331.674927,42.412975 
	C1333.914551,34.275700 1336.176880,26.056057 1338.439209,17.836418 
	C1338.672729,17.854792 1338.906250,17.873167 1339.139771,17.891542 
	C1339.139771,26.109167 1339.139771,34.326790 1339.139771,43.000000 
	C1342.077515,43.000000 1344.538818,43.000000 1347.000000,43.000000 
	C1347.000000,101.247017 1347.000000,159.494034 1347.000000,218.000000 
	C1306.979492,218.000000 1266.958374,218.000000 1226.513916,217.642181 
	C1228.890503,215.634003 1231.690308,213.983612 1234.777466,212.163879 
	C1234.950928,213.874008 1235.093262,215.277161 1235.235718,216.680557 
	C1239.537964,216.680557 1243.611816,216.680557 1248.007690,216.680557 
	C1248.007690,198.886795 1248.007690,181.418549 1248.007690,163.950317 
	C1248.007690,152.558929 1248.007446,152.556503 1236.520508,153.535782 
	C1236.216064,153.561722 1235.928711,153.786896 1234.908936,154.243561 
	C1234.908936,160.899887 1234.908936,167.886154 1234.908936,175.285385 
	C1223.127808,168.142654 1216.049805,168.575104 1208.618530,176.283676 
	C1204.043091,181.029907 1202.850220,187.092438 1202.784546,193.170990 
	C1202.700684,200.926178 1204.519287,208.308060 1211.292358,213.351303 
	C1213.473022,214.975021 1215.760986,216.454559 1218.000000,218.000031 
	C1202.979126,218.000000 1187.958130,218.000000 1172.513184,217.638107 
	C1175.332886,215.437057 1178.576782,213.597885 1181.894043,211.717178 
	C1182.012817,213.255493 1182.136475,214.856903 1182.281494,216.734299 
	C1186.000244,216.734299 1189.567017,216.734299 1193.679565,216.734299 
	C1193.679565,214.857300 1193.679565,213.235718 1193.679565,211.614151 
	C1193.679565,200.465851 1193.679199,189.317566 1193.679932,178.169266 
	C1193.680542,170.211273 1193.677612,170.417969 1185.928101,170.286301 
	C1182.058716,170.220566 1181.112671,171.707977 1181.178589,175.271576 
	C1181.320068,182.919891 1181.195435,190.578018 1180.954712,198.225037 
	C1180.894897,200.126236 1180.226074,202.116669 1179.406982,203.864487 
	C1177.283813,208.395248 1172.998657,207.221039 1169.366943,207.089005 
	C1166.168335,206.972717 1165.799561,204.381363 1165.692871,201.693741 
	C1165.410278,194.583359 1164.756714,187.482956 1164.635376,180.372025 
	C1164.449951,169.505646 1164.586914,169.500610 1153.593994,170.507629 
	C1153.292847,170.535217 1153.010986,170.773102 1152.054199,171.233078 
	C1152.054199,178.843658 1152.355469,186.792007 1151.977905,194.707977 
	C1151.507324,204.571503 1153.563232,212.957703 1163.000000,218.000000 
	C1150.645752,218.000000 1138.291504,218.000000 1125.638672,217.666138 
	C1125.598022,217.127060 1125.831299,216.789291 1126.117676,216.735825 
	C1136.582520,214.781708 1145.789185,201.809189 1142.918579,188.734192 
	C1140.970459,179.861404 1132.266724,169.009552 1118.660889,170.074509 
	C1108.787476,170.847305 1099.605103,177.838409 1097.223145,187.191986 
	C1094.517944,197.814896 1098.259888,208.031662 1106.856201,213.484299 
	C1109.235107,214.993256 1111.618652,216.494980 1114.000000,218.000000 
	C1091.312378,218.000000 1068.624878,218.000000 1045.567871,217.624237 
	C1051.805664,215.073929 1057.989868,212.595428 1061.695068,205.871796 
	C1066.175293,197.741608 1066.294434,197.572067 1057.676880,194.387405 
	C1054.469849,193.202225 1052.528809,193.164871 1051.139282,197.102936 
	C1048.761230,203.842865 1044.844360,206.280151 1038.513062,206.115662 
	C1032.435425,205.957764 1027.235107,202.540298 1025.918823,196.144577 
	C1024.746948,190.450623 1024.846436,184.415329 1025.006470,178.547653 
	C1025.192993,171.716675 1029.217163,166.441391 1034.558960,164.890915 
	C1041.863281,162.770844 1046.524170,164.171799 1050.741699,171.222534 
	C1052.793457,174.652557 1054.836914,174.756134 1057.838745,173.833832 
	C1058.913452,173.503647 1059.910522,172.737534 1060.988037,172.632950 
	C1065.187500,172.225388 1065.146362,170.053558 1063.715332,166.933975 
	C1057.678467,153.773514 1040.834351,149.841965 1027.648315,155.478790 
	C1017.584656,159.780823 1012.738098,168.158707 1011.206299,178.696442 
	C1008.362244,198.261078 1014.589233,209.463348 1032.343994,216.811203 
	C1032.670654,216.946381 1032.786011,217.592361 1033.000000,218.000000 
M894.690918,106.927887 
	C895.274536,104.678833 895.998779,102.455620 896.417725,100.176292 
	C898.298462,89.941849 898.390625,79.859833 890.399841,71.940338 
	C886.161804,67.740051 880.937378,64.535095 876.269226,60.965717 
	C876.091980,61.080776 876.640991,60.732136 877.182312,60.371792 
	C887.223816,53.687527 893.085754,44.372810 891.713562,32.275135 
	C890.268127,19.533031 882.881531,9.444807 869.807800,6.295166 
	C862.002625,4.414783 853.829285,3.514704 845.788757,3.276670 
	C830.311462,2.818474 814.807861,3.312915 799.321716,3.042100 
	C794.550598,2.958666 793.061096,4.314192 793.085327,9.194505 
	C793.272705,47.004745 793.185791,84.816330 793.198853,122.627502 
	C793.199402,124.245399 793.347412,125.863251 793.455261,128.063461 
	C795.744202,128.063461 797.695190,128.069656 799.646179,128.062500 
	C818.131104,127.994682 836.623413,127.571358 855.098755,127.958847 
	C872.108521,128.315613 886.054138,123.618919 894.690918,106.927887 
M71.340675,96.221375 
	C70.822357,98.416924 69.866409,100.609985 69.853928,102.808411 
	C69.738495,123.135506 69.793427,143.463516 69.782906,163.791275 
	C69.777451,174.328064 72.247253,177.823441 82.664833,179.931488 
	C108.468086,185.152863 134.419037,184.749680 160.261536,180.464630 
	C171.700882,178.567825 175.903778,173.761642 175.961365,164.545456 
	C176.088364,144.218491 176.084991,123.889420 175.898605,103.563385 
	C175.874557,100.941986 174.449738,98.333443 173.418533,94.858742 
	C171.575073,96.960129 170.653229,97.908974 169.845459,98.946640 
	C149.397797,125.214363 112.848610,130.317627 86.584152,110.224937 
	C81.249176,106.143600 76.898857,100.775162 71.340675,96.221375 
M396.370300,70.015541 
	C393.174652,59.062298 389.979034,48.109055 386.823944,37.294907 
	C378.827759,37.294907 371.250916,37.294907 363.491730,37.294907 
	C363.826691,38.735661 364.011658,39.872009 364.355225,40.958199 
	C369.603058,57.550514 374.858704,74.140396 380.139954,90.722122 
	C383.731934,102.000069 387.236877,113.309509 391.122742,124.485977 
	C391.700806,126.148621 394.070557,128.127060 395.768921,128.287018 
	C401.054169,128.784836 406.431305,128.708313 411.736389,128.335876 
	C413.213928,128.232132 415.454559,126.581093 415.839722,125.215317 
	C420.831573,107.515785 425.551483,89.739532 430.414032,71.708023 
	C430.750336,72.506233 431.133972,73.182060 431.326447,73.908546 
	C434.678467,86.560295 437.905884,99.246155 441.387177,111.862038 
	C442.925476,117.436790 441.792358,125.370262 447.610229,127.682365 
	C453.113037,129.869263 460.083160,128.378632 466.408508,128.458725 
	C467.045990,128.466782 467.724213,128.232239 468.315552,127.961678 
	C468.784882,127.746925 469.383759,127.382362 469.526886,126.951920 
	C471.996002,119.526253 474.442200,112.092407 476.816254,104.635796 
	C482.102570,88.032158 487.384796,71.427017 492.585571,54.796486 
	C494.365509,49.104736 495.897247,43.335373 497.716858,36.993370 
	C490.437347,36.993370 484.119598,37.164768 477.817871,36.921455 
	C474.640839,36.798794 473.686005,38.059387 472.851318,40.971962 
	C467.814087,58.548046 462.493561,76.042946 457.195038,93.808968 
	C456.693420,93.262451 456.197876,92.970818 456.099213,92.579193 
	C452.674683,78.986816 449.365448,65.364861 445.853943,51.795216 
	C444.585388,46.893166 444.191071,40.505219 440.914215,37.761379 
	C438.036530,35.351791 431.687378,37.078487 426.871155,36.998367 
	C425.038910,36.967888 423.158478,36.746655 421.390503,37.085110 
	C420.316956,37.290627 418.795837,38.224316 418.538208,39.132332 
	C416.755768,45.414593 415.339752,51.799564 413.641083,58.107117 
	C410.445068,69.974800 407.137726,81.812508 403.583862,94.726746 
	C402.713745,91.742439 402.188599,89.887405 401.631836,88.041916 
	C399.904724,82.317261 398.165649,76.596230 396.370300,70.015541 
M1162.257202,102.150002 
	C1166.269165,115.885521 1174.656982,125.408577 1188.819458,128.962128 
	C1202.968750,132.512390 1214.779419,127.970406 1225.098633,116.320641 
	C1225.098633,119.544312 1225.297852,121.362785 1225.058472,123.121574 
	C1224.508789,127.160507 1226.199707,128.438522 1230.107666,128.131821 
	C1233.915649,127.832954 1237.797852,127.752029 1241.588745,128.143768 
	C1246.514648,128.652786 1248.153198,127.218277 1248.072021,121.930878 
	C1247.739746,100.280182 1247.933350,78.621407 1247.933472,56.965607 
	C1247.933594,40.640465 1247.852783,24.314606 1247.996826,7.990732 
	C1248.029297,4.308907 1246.827637,2.894749 1243.096313,3.081770 
	C1238.277466,3.323299 1233.424561,3.357227 1228.610352,3.073311 
	C1224.530396,2.832691 1223.020752,4.166650 1223.114502,8.408319 
	C1223.361206,19.563927 1223.210083,30.728640 1223.178955,41.889626 
	C1223.175659,43.070267 1222.915283,44.250191 1222.713013,45.941582 
	C1212.857666,37.996155 1202.801514,32.770409 1190.303345,36.031700 
	C1179.630859,38.816628 1170.552002,44.157761 1165.643311,54.344410 
	C1158.375000,69.427773 1158.037109,85.282539 1162.257202,102.150002 
M692.991943,69.500000 
	C692.991943,89.059792 692.991943,108.619576 692.991943,128.489761 
	C699.680664,128.489761 705.511841,128.190765 711.295715,128.585266 
	C715.845276,128.895599 716.818359,127.215065 716.850342,122.922989 
	C716.973999,106.301582 717.177002,89.665764 718.025818,73.069855 
	C718.623718,61.381489 722.940491,57.061428 734.145081,54.641941 
	C740.591248,53.249969 749.676697,58.608452 750.243347,64.425331 
	C750.819885,70.343704 751.166321,76.303696 751.226135,82.249359 
	C751.365173,96.074951 751.380676,109.904343 751.198486,123.728928 
	C751.149597,127.441605 752.273438,128.769363 756.038879,128.560257 
	C761.187317,128.274353 766.364441,128.429291 771.527466,128.509521 
	C774.541565,128.556366 776.007935,127.661224 775.979431,124.217361 
	C775.828064,105.893768 776.152466,87.562943 775.765015,69.246201 
	C775.609985,61.914352 774.825989,54.373989 770.122375,48.125004 
	C765.327698,41.755146 759.145020,38.245941 751.112488,36.341770 
	C738.842529,33.433056 729.698486,37.992809 721.036438,45.483620 
	C719.842102,46.516438 718.685059,47.592319 716.590820,49.475479 
	C716.590820,33.417072 716.590820,18.537161 716.590820,3.992328 
	C708.007263,3.992328 700.050476,3.992328 692.991943,3.992328 
	C692.991943,25.983574 692.991943,47.241787 692.991943,69.500000 
M1087.005005,70.564468 
	C1087.004272,69.064568 1087.025879,67.564278 1086.999390,66.064835 
	C1086.768188,53.032619 1081.914185,42.836182 1068.975098,38.177250 
	C1065.018677,36.752682 1060.650513,36.351505 1056.428955,35.805054 
	C1042.877808,34.050938 1030.028320,35.606682 1018.791443,44.276505 
	C1014.016052,47.960953 1009.067017,57.564049 1009.361206,62.607365 
	C1016.658020,63.812664 1023.928284,65.013580 1031.068604,66.193031 
	C1034.756714,56.934685 1037.802246,54.878788 1047.412720,55.041859 
	C1049.540649,55.077957 1051.674316,55.500141 1053.781860,55.875931 
	C1059.580688,56.909889 1061.613647,59.486645 1062.088623,65.139015 
	C1062.578613,70.969467 1057.808960,70.145508 1054.787109,71.032341 
	C1044.044922,74.184776 1033.165894,76.868164 1022.404541,79.958717 
	C1014.352966,82.271072 1009.627441,87.875771 1007.577881,95.930458 
	C1005.059937,105.826088 1007.498962,118.932480 1017.498047,124.905907 
	C1029.885742,132.306168 1042.398438,131.595276 1054.909668,125.490791 
	C1058.082275,123.942825 1060.868774,121.603973 1063.906494,119.579376 
	C1067.235596,128.063431 1067.235596,128.063431 1076.670288,128.063309 
	C1078.003540,128.063293 1079.336792,128.063309 1080.670044,128.063309 
	C1084.019409,128.063309 1087.368774,128.063309 1092.219971,128.063309 
	C1085.035156,117.557861 1086.851196,107.005264 1086.242798,96.942863 
	C1085.733643,88.524162 1086.694946,80.016556 1087.005005,70.564468 
M969.439392,128.124817 
	C996.115417,119.086121 1006.840637,89.417717 997.257874,64.735809 
	C990.814575,48.140083 978.628540,38.683842 960.711426,36.085548 
	C944.125366,33.680267 930.374207,38.463795 919.135681,50.475338 
	C908.248718,62.111183 905.904236,76.367622 908.059692,91.576149 
	C910.851562,111.274223 922.652100,126.146858 944.025757,128.830521 
	C952.111145,129.845718 960.471375,128.671661 969.439392,128.124817 
M678.234253,108.699631 
	C679.573730,104.894386 680.913269,101.089142 682.321045,97.089905 
	C673.453979,95.714455 665.476807,94.477036 657.299561,93.208588 
	C657.451111,102.926979 652.405151,108.546608 643.334290,110.206108 
	C636.011230,111.545853 627.165649,106.234055 624.694519,99.155128 
	C621.304077,89.442703 621.995544,79.595497 623.928833,69.816040 
	C625.681580,60.950039 630.097961,56.517693 636.792603,55.886700 
	C648.762512,54.758492 652.239624,56.676228 656.556946,66.213364 
	C657.081299,67.371613 659.213501,68.684616 660.398804,68.515160 
	C667.154541,67.549309 673.849121,66.155556 680.738037,64.874977 
	C677.197144,50.516224 668.504639,40.679905 653.673767,37.232933 
	C646.620544,35.593632 639.673828,34.561821 631.942627,36.365227 
	C619.867371,39.181927 610.471191,44.599010 603.921143,55.061394 
	C595.636475,68.294540 595.720276,82.909523 598.416748,97.274734 
	C600.703308,109.456215 607.527771,119.410698 619.160828,125.349838 
	C627.876587,129.799606 637.108826,130.862717 646.605225,129.807266 
	C660.393494,128.274796 671.562378,122.484055 678.234253,108.699631 
M550.337219,26.642786 
	C550.337219,29.926380 550.337219,33.209972 550.337219,36.675175 
	C546.463684,36.929451 543.084778,37.151257 539.407715,37.392632 
	C539.407715,43.431152 539.456360,48.908031 539.387756,54.383438 
	C539.351807,57.255852 540.785278,58.178288 543.444641,58.036625 
	C545.684204,57.917320 547.935242,58.012081 551.014221,58.012081 
	C551.014221,75.935097 551.054382,93.054916 550.997620,110.174416 
	C550.968384,118.955757 557.711914,126.926933 566.342346,129.046463 
	C574.777588,131.118057 582.853699,129.518524 590.940491,127.637253 
	C592.071777,127.374069 593.674866,125.342560 593.582886,124.254372 
	C593.105042,118.598022 592.148682,112.982094 591.345398,107.255394 
	C590.761414,107.346481 590.291138,107.442955 589.815918,107.490311 
	C585.688965,107.901527 581.489136,108.837448 577.489319,108.297043 
	C576.598450,108.176682 576.396179,102.855942 575.909790,99.924080 
	C575.801575,99.271385 575.803284,98.595688 575.802979,97.930557 
	C575.797241,84.813042 575.798706,71.695526 575.798706,57.945972 
	C581.228271,57.945972 586.299377,57.945972 591.524719,57.945972 
	C591.524719,50.731709 591.524719,44.154827 591.524719,36.953293 
	C586.210022,36.953293 581.142822,36.953293 575.621460,36.953293 
	C575.621460,26.333673 575.621460,16.331028 575.621460,5.488152 
	C568.387451,9.822709 562.059937,14.098043 555.287537,17.483404 
	C551.465027,19.394207 549.476379,21.436152 550.337219,26.642786 
M1102.055298,90.500000 
	C1102.055298,101.651939 1101.975342,112.805191 1102.158203,123.954124 
	C1102.180664,125.321732 1103.560791,127.808418 1104.391968,127.842903 
	C1111.789795,128.149872 1119.205688,128.021561 1126.322510,128.021561 
	C1126.703125,126.914360 1126.901367,126.605827 1126.901978,126.296890 
	C1126.924316,115.646446 1126.542847,104.977470 1127.053101,94.351189 
	C1127.479492,85.474663 1128.744995,76.618690 1130.030762,67.810829 
	C1130.764648,62.784702 1134.968140,58.770248 1140.007202,58.650814 
	C1144.714478,58.539242 1149.450317,59.632221 1154.710083,60.258953 
	C1156.404175,55.232254 1158.050537,49.529270 1160.269409,44.058449 
	C1161.688232,40.560005 1160.136597,39.081661 1157.410767,37.914131 
	C1146.927246,33.423958 1135.787109,33.944721 1128.645386,44.857876 
	C1127.797241,46.153889 1126.515991,47.166512 1124.725708,49.062080 
	C1124.725708,44.534370 1124.725708,40.979450 1124.725708,37.342888 
	C1116.996948,37.342888 1109.770508,37.342888 1102.055542,37.342888 
	C1102.055542,54.957691 1102.055542,72.228844 1102.055298,90.500000 
M230.440613,118.919106 
	C239.163330,108.537682 240.580887,95.609825 234.124420,84.812202 
	C228.364975,75.180244 215.766693,68.033226 202.656082,71.073822 
	C187.459656,74.598145 177.397888,90.818542 180.625366,105.536255 
	C185.205521,126.422325 212.167221,137.547897 230.440613,118.919106 
M49.370308,119.975685 
	C58.621731,113.831734 63.371059,105.551414 63.030735,94.101196 
	C62.615097,80.117111 50.361748,66.191971 33.140743,67.371231 
	C15.482552,68.580429 5.255370,83.417313 6.540003,97.450432 
	C8.521735,119.098549 29.309258,130.170609 49.370308,119.975685 
M531.962585,64.500000 
	C531.962585,55.428368 531.962585,46.356735 531.962585,37.407722 
	C523.240173,37.407722 515.358643,37.407722 507.199524,37.407722 
	C507.199524,66.925308 507.218933,96.021179 507.172028,125.116943 
	C507.166870,128.323135 509.217255,128.485443 511.491394,128.497314 
	C516.648743,128.524231 521.820862,128.268967 526.959229,128.582291 
	C531.026550,128.830322 532.064941,127.245163 532.034058,123.396744 
	C531.879150,104.098885 531.962769,84.799103 531.962585,64.500000 
M1074.397095,192.499924 
	C1074.397095,200.452469 1074.397095,208.405014 1074.397095,216.682373 
	C1078.968994,216.682373 1083.007202,216.682373 1087.524414,216.682373 
	C1087.524414,214.560745 1087.524414,212.761566 1087.524414,210.962387 
	C1087.524414,194.475220 1087.524536,177.988068 1087.524414,161.500900 
	C1087.524292,153.258209 1087.520386,153.452057 1079.441528,153.306641 
	C1075.451172,153.234818 1074.250488,154.636292 1074.324341,158.526978 
	C1074.532837,169.514450 1074.397461,180.508469 1074.397095,192.499924 
M521.457764,3.216644 
	C516.865601,3.216644 512.273499,3.216644 507.171722,3.216644 
	C507.171722,7.069325 507.171722,10.193402 507.171783,13.317479 
	C507.171967,25.970634 507.171936,25.970634 519.933899,25.970633 
	C532.379028,25.970631 532.442505,25.970219 532.360535,13.317238 
	C532.283936,1.493026 533.926208,3.402491 521.457764,3.216644 
z"/>
<path fill="#25ADE3" opacity="1.000000" stroke="none" 
	d="
M130.532059,1.000001 
	C137.156326,3.226867 143.640778,4.817394 149.411163,7.792745 
	C172.195419,19.540852 183.501602,43.515442 180.603729,65.903252 
	C177.163788,92.478836 157.971283,112.251526 133.228394,116.967766 
	C100.814484,123.146164 69.423164,101.527519 64.405365,68.502426 
	C59.222416,34.390442 82.451500,6.951551 112.818192,1.344226 
	C118.688042,1.000000 124.376076,1.000000 130.532059,1.000001 
z"/>
<path fill="#ACACAC" opacity="1.000000" stroke="none" 
	d="
M181.945953,147.983856 
	C187.951813,145.529343 193.776031,142.302261 200.014130,140.835464 
	C206.377792,139.339203 213.169998,138.960281 219.735291,139.194397 
	C229.268570,139.534378 235.456345,146.754715 235.906845,157.157669 
	C236.151596,162.809937 236.198608,168.496964 235.870941,174.141388 
	C235.440033,181.564377 230.659317,186.518387 225.193192,190.776077 
	C210.728470,202.042953 193.906723,208.210846 176.240982,211.781876 
	C163.176697,214.422729 149.813431,215.584503 136.291687,217.702606 
	C126.979103,218.000000 117.958214,218.000000 108.195740,217.684265 
	C95.839806,215.900681 84.119629,214.995728 72.635208,212.836716 
	C54.135670,209.358932 36.362240,203.493256 21.116636,191.967407 
	C15.791702,187.941696 9.713609,183.742157 9.136186,176.209427 
	C8.595325,169.153656 8.774591,162.012283 9.090915,154.928864 
	C9.490488,145.981201 16.224228,139.393066 25.122681,139.078735 
	C37.700512,138.634415 49.924156,140.001831 60.768463,147.247086 
	C65.158401,153.082031 65.422600,159.831055 64.945755,166.687897 
	C64.428497,174.125793 67.468704,179.592712 74.533272,181.701447 
	C82.229683,183.998795 90.150398,186.066757 98.108704,186.838333 
	C109.142586,187.908051 120.336945,188.365372 131.399750,187.817078 
	C143.866623,187.199188 156.528839,187.109177 168.493973,182.396408 
	C176.354935,179.300186 178.600159,175.850540 179.132111,167.643784 
	C179.543518,161.296509 181.149033,155.026642 182.112457,148.360748 
	C182.001221,147.999130 181.945953,147.983856 181.945953,147.983856 
z"/>
<path fill="#28AEE4" opacity="1.000000" stroke="none" 
	d="
M318.531738,1.000000 
	C323.404114,2.385780 327.853058,3.644609 332.204193,5.180496 
	C346.849731,10.350159 356.118469,23.312080 356.590027,39.623562 
	C348.388763,40.000523 340.168304,40.378365 331.915680,40.757687 
	C330.766541,38.594532 329.094574,36.619610 328.650360,34.399078 
	C327.097473,26.636581 321.107513,23.984226 314.707642,23.227072 
	C309.097839,22.563387 303.121704,23.369909 297.533569,24.575434 
	C291.079681,25.967718 288.040161,29.803316 288.014160,34.483555 
	C287.987427,39.295467 291.522797,43.272465 297.612885,45.141117 
	C310.643555,49.139370 323.895142,52.530445 336.665924,57.230804 
	C349.341278,61.896053 357.264221,71.076256 359.678040,84.992073 
	C363.565277,107.402252 346.952789,125.586372 327.407440,128.473541 
	C312.226013,130.716064 297.377411,131.212448 282.943451,124.905960 
	C269.279083,118.935730 258.748260,100.812576 259.695679,87.453728 
	C265.515717,86.696854 271.371124,85.956169 277.220123,85.167847 
	C281.556488,84.583389 284.566559,85.354530 285.670990,90.520920 
	C288.878113,105.523697 299.398682,108.390579 311.994324,108.557289 
	C318.456116,108.642807 325.160675,107.279663 330.244354,101.644363 
	C336.664062,94.528099 335.312531,84.053253 326.359070,80.862183 
	C317.122467,77.570221 307.445618,75.536308 298.056152,72.644241 
	C288.536194,69.711967 279.432465,66.076706 272.322998,58.459332 
	C258.167023,43.292065 262.083984,19.405182 278.662903,9.437056 
	C284.928314,5.669952 292.593506,4.231018 299.810303,1.365408 
	C306.021149,1.000000 312.042297,1.000000 318.531738,1.000000 
z"/>
<path fill="#FEFFFF" opacity="1.000000" stroke="none" 
	d="
M61.022255,146.991913 
	C49.924156,140.001831 37.700512,138.634415 25.122681,139.078735 
	C16.224228,139.393066 9.490488,145.981201 9.090915,154.928864 
	C8.774591,162.012283 8.595325,169.153656 9.136186,176.209427 
	C9.713609,183.742157 15.791702,187.941696 21.116636,191.967407 
	C36.362240,203.493256 54.135670,209.358932 72.635208,212.836716 
	C84.119629,214.995728 95.839806,215.900681 107.727081,217.684265 
	C72.411125,218.000000 36.822243,218.000000 1.000000,218.000000 
	C1.000000,186.979492 1.000000,155.958405 1.338347,124.651550 
	C2.784954,131.570465 5.865754,137.755875 9.929942,141.959839 
	C15.537327,140.056107 20.215538,137.269852 24.976614,137.120209 
	C32.971794,136.868942 41.165165,137.611816 48.989826,139.277100 
	C53.542877,140.246124 57.540340,143.825638 61.787796,146.230545 
	C61.617210,146.399277 61.446625,146.568008 61.022255,146.991913 
z"/>
<path fill="#2CB0E4" opacity="1.000000" stroke="none" 
	d="
M1033.460693,218.000000 
	C1032.786011,217.592361 1032.670654,216.946381 1032.343994,216.811203 
	C1014.589233,209.463348 1008.362244,198.261078 1011.206299,178.696442 
	C1012.738098,168.158707 1017.584656,159.780823 1027.648315,155.478790 
	C1040.834351,149.841965 1057.678467,153.773514 1063.715332,166.933975 
	C1065.146362,170.053558 1065.187500,172.225388 1060.988037,172.632950 
	C1059.910522,172.737534 1058.913452,173.503647 1057.838745,173.833832 
	C1054.836914,174.756134 1052.793457,174.652557 1050.741699,171.222534 
	C1046.524170,164.171799 1041.863281,162.770844 1034.558960,164.890915 
	C1029.217163,166.441391 1025.192993,171.716675 1025.006470,178.547653 
	C1024.846436,184.415329 1024.746948,190.450623 1025.918823,196.144577 
	C1027.235107,202.540298 1032.435425,205.957764 1038.513062,206.115662 
	C1044.844360,206.280151 1048.761230,203.842865 1051.139282,197.102936 
	C1052.528809,193.164871 1054.469849,193.202225 1057.676880,194.387405 
	C1066.294434,197.572067 1066.175293,197.741608 1061.695068,205.871796 
	C1057.989868,212.595428 1051.805664,215.073929 1045.099243,217.624237 
	C1041.307129,218.000000 1037.614136,218.000000 1033.460693,218.000000 
z"/>
<path fill="#29AFE4" opacity="1.000000" stroke="none" 
	d="
M1218.444092,218.000031 
	C1215.760986,216.454559 1213.473022,214.975021 1211.292358,213.351303 
	C1204.519287,208.308060 1202.700684,200.926178 1202.784546,193.170990 
	C1202.850220,187.092438 1204.043091,181.029907 1208.618530,176.283676 
	C1216.049805,168.575104 1223.127808,168.142654 1234.908936,175.285385 
	C1234.908936,167.886154 1234.908936,160.899887 1234.908936,154.243561 
	C1235.928711,153.786896 1236.216064,153.561722 1236.520508,153.535782 
	C1248.007446,152.556503 1248.007690,152.558929 1248.007690,163.950317 
	C1248.007690,181.418549 1248.007690,198.886795 1248.007690,216.680557 
	C1243.611816,216.680557 1239.537964,216.680557 1235.235718,216.680557 
	C1235.093262,215.277161 1234.950928,213.874008 1234.777466,212.163879 
	C1231.690308,213.983612 1228.890503,215.634003 1226.045288,217.642181 
	C1223.629395,218.000000 1221.258911,218.000000 1218.444092,218.000031 
M1218.760986,204.612213 
	C1225.025879,210.068298 1231.907837,208.374924 1233.891479,200.366333 
	C1234.883057,196.363098 1234.706665,191.867813 1234.118042,187.728836 
	C1233.432617,182.908142 1228.828491,179.189011 1225.072876,179.356705 
	C1221.221680,179.528641 1215.806885,184.621567 1215.947510,189.079880 
	C1216.104858,194.073547 1217.441040,199.030045 1218.760986,204.612213 
z"/>
<path fill="#2CB0E4" opacity="1.000000" stroke="none" 
	d="
M1114.458008,218.000000 
	C1111.618652,216.494980 1109.235107,214.993256 1106.856201,213.484299 
	C1098.259888,208.031662 1094.517944,197.814896 1097.223145,187.191986 
	C1099.605103,177.838409 1108.787476,170.847305 1118.660889,170.074509 
	C1132.266724,169.009552 1140.970459,179.861404 1142.918579,188.734192 
	C1145.789185,201.809189 1136.582520,214.781708 1126.117676,216.735825 
	C1125.831299,216.789291 1125.598022,217.127060 1125.169922,217.666138 
	C1121.638672,218.000000 1118.277466,218.000000 1114.458008,218.000000 
M1117.144043,181.029541 
	C1108.407959,182.863846 1108.416260,194.417572 1111.420776,201.927963 
	C1113.738403,207.721527 1123.063477,209.052399 1127.288818,204.453735 
	C1129.996460,201.507111 1131.412842,190.121078 1129.314087,186.076553 
	C1126.939697,181.500854 1122.799927,180.344437 1117.144043,181.029541 
z"/>
<path fill="#2FB1E5" opacity="1.000000" stroke="none" 
	d="
M1163.449951,218.000000 
	C1153.563232,212.957703 1151.507324,204.571503 1151.977905,194.707977 
	C1152.355469,186.792007 1152.054199,178.843658 1152.054199,171.233078 
	C1153.010986,170.773102 1153.292847,170.535217 1153.593994,170.507629 
	C1164.586914,169.500610 1164.449951,169.505646 1164.635376,180.372025 
	C1164.756714,187.482956 1165.410278,194.583359 1165.692871,201.693741 
	C1165.799561,204.381363 1166.168335,206.972717 1169.366943,207.089005 
	C1172.998657,207.221039 1177.283813,208.395248 1179.406982,203.864487 
	C1180.226074,202.116669 1180.894897,200.126236 1180.954712,198.225037 
	C1181.195435,190.578018 1181.320068,182.919891 1181.178589,175.271576 
	C1181.112671,171.707977 1182.058716,170.220566 1185.928101,170.286301 
	C1193.677612,170.417969 1193.680542,170.211273 1193.679932,178.169266 
	C1193.679199,189.317566 1193.679565,200.465851 1193.679565,211.614151 
	C1193.679565,213.235718 1193.679565,214.857300 1193.679565,216.734299 
	C1189.567017,216.734299 1186.000244,216.734299 1182.281494,216.734299 
	C1182.136475,214.856903 1182.012817,213.255493 1181.894043,211.717178 
	C1178.576782,213.597885 1175.332886,215.437057 1172.044434,217.638107 
	C1169.299927,218.000000 1166.599976,218.000000 1163.449951,218.000000 
z"/>
<path fill="#ADADAD" opacity="1.000000" stroke="none" 
	d="
M1347.000000,42.531342 
	C1344.538818,43.000000 1342.077515,43.000000 1339.139771,43.000000 
	C1339.139771,34.326790 1339.139771,26.109167 1339.139771,17.891542 
	C1338.906250,17.873167 1338.672729,17.854792 1338.439209,17.836418 
	C1336.176880,26.056057 1333.914551,34.275700 1331.674927,42.412975 
	C1323.252319,43.933083 1323.020752,43.805206 1321.046509,35.760574 
	C1319.518311,29.533758 1318.056519,23.290661 1315.955078,17.087292 
	C1315.955078,25.440350 1315.955078,33.793407 1315.955078,42.572796 
	C1312.981323,42.572796 1310.426025,42.572796 1307.034912,42.572796 
	C1307.034912,29.105576 1307.034912,15.521188 1307.017456,1.468400 
	C1310.692871,1.000000 1314.385864,1.000000 1318.681885,1.334032 
	C1319.839722,2.650526 1320.607666,3.570807 1320.915283,4.625371 
	C1323.161377,12.326028 1325.315063,20.053637 1327.460571,27.641100 
	C1328.285889,24.332586 1329.125732,21.016788 1329.939331,17.694590 
	C1331.301758,12.131893 1332.647339,6.565090 1334.000000,1.000009 
	C1338.298584,1.000000 1342.597046,1.000000 1347.000000,1.000000 
	C1347.000000,14.687412 1347.000000,28.375048 1347.000000,42.531342 
z"/>
<path fill="#2BB0E4" opacity="1.000000" stroke="none" 
	d="
M62.044029,146.471283 
	C57.540340,143.825638 53.542877,140.246124 48.989826,139.277100 
	C41.165165,137.611816 32.971794,136.868942 24.976614,137.120209 
	C20.215538,137.269852 15.537327,140.056107 9.929942,141.959839 
	C5.865754,137.755875 2.784954,131.570465 1.338347,124.182892 
	C1.000000,121.958336 1.000000,119.916664 0.999999,117.437500 
	C3.359909,115.301834 5.719819,113.603661 8.072782,111.910492 
	C24.068050,133.492340 42.889587,133.705811 61.504398,112.757637 
	C65.116631,114.126984 67.828728,116.344604 67.865593,120.583755 
	C67.953987,130.746735 67.919907,140.911133 67.855560,151.074463 
	C67.849632,152.010223 67.272758,152.942383 66.654770,154.793503 
	C64.858086,151.459045 63.579178,149.085541 62.044029,146.471283 
z"/>
<path fill="#AFAFAF" opacity="1.000000" stroke="none" 
	d="
M1301.531372,1.000000 
	C1302.000000,3.461567 1302.000000,5.923135 1302.000000,8.870415 
	C1297.956543,8.870415 1294.357666,8.870415 1289.952271,8.870415 
	C1289.952271,14.753201 1289.952271,20.177080 1289.952271,25.600960 
	C1289.952271,31.091129 1289.952271,36.581299 1289.952271,42.542213 
	C1286.819580,42.542213 1283.938232,42.542213 1280.476685,42.542213 
	C1280.476685,31.747572 1280.476685,20.830887 1280.476685,9.284248 
	C1276.205688,9.284248 1272.483398,9.284248 1268.045776,9.284248 
	C1268.045776,6.406510 1268.045776,4.154107 1268.022949,1.450852 
	C1279.020874,1.000000 1290.041870,1.000000 1301.531372,1.000000 
z"/>
<path fill="#FBFDFE" opacity="1.000000" stroke="none" 
	d="
M1333.533936,1.000009 
	C1332.647339,6.565090 1331.301758,12.131893 1329.939331,17.694590 
	C1329.125732,21.016788 1328.285889,24.332586 1327.460571,27.641100 
	C1325.315063,20.053637 1323.161377,12.326028 1320.915283,4.625371 
	C1320.607666,3.570807 1319.839722,2.650526 1319.142456,1.334032 
	C1323.689331,1.000000 1328.378540,1.000000 1333.533936,1.000009 
z"/>
<path fill="#ADADAD" opacity="1.000000" stroke="none" 
	d="
M894.549561,107.287338 
	C886.054138,123.618919 872.108521,128.315613 855.098755,127.958847 
	C836.623413,127.571358 818.131104,127.994682 799.646179,128.062500 
	C797.695190,128.069656 795.744202,128.063461 793.455261,128.063461 
	C793.347412,125.863251 793.199402,124.245399 793.198853,122.627502 
	C793.185791,84.816330 793.272705,47.004745 793.085327,9.194505 
	C793.061096,4.314192 794.550598,2.958666 799.321716,3.042100 
	C814.807861,3.312915 830.311462,2.818474 845.788757,3.276670 
	C853.829285,3.514704 862.002625,4.414783 869.807800,6.295166 
	C882.881531,9.444807 890.268127,19.533031 891.713562,32.275135 
	C893.085754,44.372810 887.223816,53.687527 877.182312,60.371792 
	C876.640991,60.732136 876.091980,61.080776 876.269226,60.965717 
	C880.937378,64.535095 886.161804,67.740051 890.399841,71.940338 
	C898.390625,79.859833 898.298462,89.941849 896.417725,100.176292 
	C895.998779,102.455620 895.274536,104.678833 894.549561,107.287338 
M870.978516,93.106758 
	C871.077209,82.417145 868.664246,78.886475 858.325562,75.690933 
	C855.654480,74.865334 852.649414,75.060722 849.791260,74.910416 
	C839.755127,74.382599 829.716064,73.908539 819.367188,73.398750 
	C819.367188,85.046791 819.367188,95.727638 819.367188,106.036041 
	C831.480713,106.036041 843.225830,106.134155 854.968323,106.004128 
	C863.907043,105.905151 868.216187,102.516365 870.978516,93.106758 
M825.597107,25.004805 
	C823.511292,25.004805 821.425476,25.004805 819.321289,25.004805 
	C819.321289,34.711472 819.321289,43.621017 819.321289,51.940472 
	C831.561157,51.940472 843.498047,52.345879 855.388245,51.776577 
	C861.729370,51.472961 865.663269,45.956253 865.986206,39.959415 
	C866.583374,28.869610 860.362488,25.541296 851.050903,25.062159 
	C842.913452,24.643436 834.736389,24.994070 825.597107,25.004805 
z"/>
<path fill="#26AEE3" opacity="1.000000" stroke="none" 
	d="
M71.717636,96.110733 
	C76.898857,100.775162 81.249176,106.143600 86.584152,110.224937 
	C112.848610,130.317627 149.397797,125.214363 169.845459,98.946640 
	C170.653229,97.908974 171.575073,96.960129 173.418533,94.858742 
	C174.449738,98.333443 175.874557,100.941986 175.898605,103.563385 
	C176.084991,123.889420 176.088364,144.218491 175.961365,164.545456 
	C175.903778,173.761642 171.700882,178.567825 160.261536,180.464630 
	C134.419037,184.749680 108.468086,185.152863 82.664833,179.931488 
	C72.247253,177.823441 69.777451,174.328064 69.782906,163.791275 
	C69.793427,143.463516 69.738495,123.135506 69.853928,102.808411 
	C69.866409,100.609985 70.822357,98.416924 71.717636,96.110733 
z"/>
<path fill="#28AEE4" opacity="1.000000" stroke="none" 
	d="
M396.400757,70.444664 
	C398.165649,76.596230 399.904724,82.317261 401.631836,88.041916 
	C402.188599,89.887405 402.713745,91.742439 403.583862,94.726746 
	C407.137726,81.812508 410.445068,69.974800 413.641083,58.107117 
	C415.339752,51.799564 416.755768,45.414593 418.538208,39.132332 
	C418.795837,38.224316 420.316956,37.290627 421.390503,37.085110 
	C423.158478,36.746655 425.038910,36.967888 426.871155,36.998367 
	C431.687378,37.078487 438.036530,35.351791 440.914215,37.761379 
	C444.191071,40.505219 444.585388,46.893166 445.853943,51.795216 
	C449.365448,65.364861 452.674683,78.986816 456.099213,92.579193 
	C456.197876,92.970818 456.693420,93.262451 457.195038,93.808968 
	C462.493561,76.042946 467.814087,58.548046 472.851318,40.971962 
	C473.686005,38.059387 474.640839,36.798794 477.817871,36.921455 
	C484.119598,37.164768 490.437347,36.993370 497.716858,36.993370 
	C495.897247,43.335373 494.365509,49.104736 492.585571,54.796486 
	C487.384796,71.427017 482.102570,88.032158 476.816254,104.635796 
	C474.442200,112.092407 471.996002,119.526253 469.526886,126.951920 
	C469.383759,127.382362 468.784882,127.746925 468.315552,127.961678 
	C467.724213,128.232239 467.045990,128.466782 466.408508,128.458725 
	C460.083160,128.378632 453.113037,129.869263 447.610229,127.682365 
	C441.792358,125.370262 442.925476,117.436790 441.387177,111.862038 
	C437.905884,99.246155 434.678467,86.560295 431.326447,73.908546 
	C431.133972,73.182060 430.750336,72.506233 430.414032,71.708023 
	C425.551483,89.739532 420.831573,107.515785 415.839722,125.215317 
	C415.454559,126.581093 413.213928,128.232132 411.736389,128.335876 
	C406.431305,128.708313 401.054169,128.784836 395.768921,128.287018 
	C394.070557,128.127060 391.700806,126.148621 391.122742,124.485977 
	C387.236877,113.309509 383.731934,102.000069 380.139954,90.722122 
	C374.858704,74.140396 369.603058,57.550514 364.355225,40.958199 
	C364.011658,39.872009 363.826691,38.735661 363.491730,37.294907 
	C371.250916,37.294907 378.827759,37.294907 386.823944,37.294907 
	C389.979034,48.109055 393.174652,59.062298 396.400757,70.444664 
z"/>
<path fill="#ADADAD" opacity="1.000000" stroke="none" 
	d="
M1162.164307,101.750069 
	C1158.037109,85.282539 1158.375000,69.427773 1165.643311,54.344410 
	C1170.552002,44.157761 1179.630859,38.816628 1190.303345,36.031700 
	C1202.801514,32.770409 1212.857666,37.996155 1222.713013,45.941582 
	C1222.915283,44.250191 1223.175659,43.070267 1223.178955,41.889626 
	C1223.210083,30.728640 1223.361206,19.563927 1223.114502,8.408319 
	C1223.020752,4.166650 1224.530396,2.832691 1228.610352,3.073311 
	C1233.424561,3.357227 1238.277466,3.323299 1243.096313,3.081770 
	C1246.827637,2.894749 1248.029297,4.308907 1247.996826,7.990732 
	C1247.852783,24.314606 1247.933594,40.640465 1247.933472,56.965607 
	C1247.933350,78.621407 1247.739746,100.280182 1248.072021,121.930878 
	C1248.153198,127.218277 1246.514648,128.652786 1241.588745,128.143768 
	C1237.797852,127.752029 1233.915649,127.832954 1230.107666,128.131821 
	C1226.199707,128.438522 1224.508789,127.160507 1225.058472,123.121574 
	C1225.297852,121.362785 1225.098633,119.544312 1225.098633,116.320641 
	C1214.779419,127.970406 1202.968750,132.512390 1188.819458,128.962128 
	C1174.656982,125.408577 1166.269165,115.885521 1162.164307,101.750069 
M1188.362793,100.974182 
	C1189.815918,102.925674 1190.883179,105.451942 1192.787842,106.731033 
	C1201.965820,112.894569 1215.850586,111.986526 1220.646362,98.684074 
	C1224.729370,87.358337 1224.523071,75.792175 1219.911255,64.652191 
	C1217.268188,58.267456 1211.683960,55.442196 1204.857910,55.043457 
	C1198.353882,54.663525 1192.560059,57.059067 1189.560791,62.459362 
	C1182.826294,74.585266 1183.740234,87.476906 1188.362793,100.974182 
z"/>
<path fill="#29AFE4" opacity="1.000000" stroke="none" 
	d="
M692.991943,69.000000 
	C692.991943,47.241787 692.991943,25.983574 692.991943,3.992328 
	C700.050476,3.992328 708.007263,3.992328 716.590820,3.992328 
	C716.590820,18.537161 716.590820,33.417072 716.590820,49.475479 
	C718.685059,47.592319 719.842102,46.516438 721.036438,45.483620 
	C729.698486,37.992809 738.842529,33.433056 751.112488,36.341770 
	C759.145020,38.245941 765.327698,41.755146 770.122375,48.125004 
	C774.825989,54.373989 775.609985,61.914352 775.765015,69.246201 
	C776.152466,87.562943 775.828064,105.893768 775.979431,124.217361 
	C776.007935,127.661224 774.541565,128.556366 771.527466,128.509521 
	C766.364441,128.429291 761.187317,128.274353 756.038879,128.560257 
	C752.273438,128.769363 751.149597,127.441605 751.198486,123.728928 
	C751.380676,109.904343 751.365173,96.074951 751.226135,82.249359 
	C751.166321,76.303696 750.819885,70.343704 750.243347,64.425331 
	C749.676697,58.608452 740.591248,53.249969 734.145081,54.641941 
	C722.940491,57.061428 718.623718,61.381489 718.025818,73.069855 
	C717.177002,89.665764 716.973999,106.301582 716.850342,122.922989 
	C716.818359,127.215065 715.845276,128.895599 711.295715,128.585266 
	C705.511841,128.190765 699.680664,128.489761 692.991943,128.489761 
	C692.991943,108.619576 692.991943,89.059792 692.991943,69.000000 
z"/>
<path fill="#ADADAD" opacity="1.000000" stroke="none" 
	d="
M1087.005127,71.056389 
	C1086.694946,80.016556 1085.733643,88.524162 1086.242798,96.942863 
	C1086.851196,107.005264 1085.035156,117.557861 1092.219971,128.063309 
	C1087.368774,128.063309 1084.019409,128.063309 1080.670044,128.063309 
	C1079.336792,128.063309 1078.003540,128.063293 1076.670288,128.063309 
	C1067.235596,128.063431 1067.235596,128.063431 1063.906494,119.579376 
	C1060.868774,121.603973 1058.082275,123.942825 1054.909668,125.490791 
	C1042.398438,131.595276 1029.885742,132.306168 1017.498047,124.905907 
	C1007.498962,118.932480 1005.059937,105.826088 1007.577881,95.930458 
	C1009.627441,87.875771 1014.352966,82.271072 1022.404541,79.958717 
	C1033.165894,76.868164 1044.044922,74.184776 1054.787109,71.032341 
	C1057.808960,70.145508 1062.578613,70.969467 1062.088623,65.139015 
	C1061.613647,59.486645 1059.580688,56.909889 1053.781860,55.875931 
	C1051.674316,55.500141 1049.540649,55.077957 1047.412720,55.041859 
	C1037.802246,54.878788 1034.756714,56.934685 1031.068604,66.193031 
	C1023.928284,65.013580 1016.658020,63.812664 1009.361206,62.607365 
	C1009.067017,57.564049 1014.016052,47.960953 1018.791443,44.276505 
	C1030.028320,35.606682 1042.877808,34.050938 1056.428955,35.805054 
	C1060.650513,36.351505 1065.018677,36.752682 1068.975098,38.177250 
	C1081.914185,42.836182 1086.768188,53.032619 1086.999390,66.064835 
	C1087.025879,67.564278 1087.004272,69.064568 1087.005127,71.056389 
M1036.228027,92.356590 
	C1028.995239,96.973587 1029.975342,105.560074 1034.961670,109.660828 
	C1040.675415,114.359840 1054.836304,112.417122 1058.786987,106.166840 
	C1062.748047,99.900070 1062.408447,93.100121 1061.724609,85.454735 
	C1053.088135,87.746330 1045.009399,89.889931 1036.228027,92.356590 
z"/>
<path fill="#ADADAD" opacity="1.000000" stroke="none" 
	d="
M969.072876,128.310181 
	C960.471375,128.671661 952.111145,129.845718 944.025757,128.830521 
	C922.652100,126.146858 910.851562,111.274223 908.059692,91.576149 
	C905.904236,76.367622 908.248718,62.111183 919.135681,50.475338 
	C930.374207,38.463795 944.125366,33.680267 960.711426,36.085548 
	C978.628540,38.683842 990.814575,48.140083 997.257874,64.735809 
	C1006.840637,89.417717 996.115417,119.086121 969.072876,128.310181 
M940.023315,61.454807 
	C930.873779,71.700172 929.705322,89.907990 937.463379,101.347244 
	C942.258484,108.417770 950.004700,111.066269 958.726135,109.192245 
	C967.523376,107.301933 973.806091,98.566612 974.438354,91.915268 
	C974.943420,86.602142 974.273743,81.185204 974.273438,75.814339 
	C974.273071,67.905884 970.214783,62.415867 963.663757,58.825539 
	C955.646667,54.431656 947.841797,55.687843 940.023315,61.454807 
z"/>
<path fill="#29AFE4" opacity="1.000000" stroke="none" 
	d="
M678.003906,109.000137 
	C671.562378,122.484055 660.393494,128.274796 646.605225,129.807266 
	C637.108826,130.862717 627.876587,129.799606 619.160828,125.349838 
	C607.527771,119.410698 600.703308,109.456215 598.416748,97.274734 
	C595.720276,82.909523 595.636475,68.294540 603.921143,55.061394 
	C610.471191,44.599010 619.867371,39.181927 631.942627,36.365227 
	C639.673828,34.561821 646.620544,35.593632 653.673767,37.232933 
	C668.504639,40.679905 677.197144,50.516224 680.738037,64.874977 
	C673.849121,66.155556 667.154541,67.549309 660.398804,68.515160 
	C659.213501,68.684616 657.081299,67.371613 656.556946,66.213364 
	C652.239624,56.676228 648.762512,54.758492 636.792603,55.886700 
	C630.097961,56.517693 625.681580,60.950039 623.928833,69.816040 
	C621.995544,79.595497 621.304077,89.442703 624.694519,99.155128 
	C627.165649,106.234055 636.011230,111.545853 643.334290,110.206108 
	C652.405151,108.546608 657.451111,102.926979 657.299561,93.208588 
	C665.476807,94.477036 673.453979,95.714455 682.321045,97.089905 
	C680.913269,101.089142 679.573730,104.894386 678.003906,109.000137 
z"/>
<path fill="#2BB0E4" opacity="1.000000" stroke="none" 
	d="
M550.337341,26.173878 
	C549.476379,21.436152 551.465027,19.394207 555.287537,17.483404 
	C562.059937,14.098043 568.387451,9.822709 575.621460,5.488152 
	C575.621460,16.331028 575.621460,26.333673 575.621460,36.953293 
	C581.142822,36.953293 586.210022,36.953293 591.524719,36.953293 
	C591.524719,44.154827 591.524719,50.731709 591.524719,57.945972 
	C586.299377,57.945972 581.228271,57.945972 575.798706,57.945972 
	C575.798706,71.695526 575.797241,84.813042 575.802979,97.930557 
	C575.803284,98.595688 575.801575,99.271385 575.909790,99.924080 
	C576.396179,102.855942 576.598450,108.176682 577.489319,108.297043 
	C581.489136,108.837448 585.688965,107.901527 589.815918,107.490311 
	C590.291138,107.442955 590.761414,107.346481 591.345398,107.255394 
	C592.148682,112.982094 593.105042,118.598022 593.582886,124.254372 
	C593.674866,125.342560 592.071777,127.374069 590.940491,127.637253 
	C582.853699,129.518524 574.777588,131.118057 566.342346,129.046463 
	C557.711914,126.926933 550.968384,118.955757 550.997620,110.174416 
	C551.054382,93.054916 551.014221,75.935097 551.014221,58.012081 
	C547.935242,58.012081 545.684204,57.917320 543.444641,58.036625 
	C540.785278,58.178288 539.351807,57.255852 539.387756,54.383438 
	C539.456360,48.908031 539.407715,43.431152 539.407715,37.392632 
	C543.084778,37.151257 546.463684,36.929451 550.337219,36.675175 
	C550.337219,33.209972 550.337219,29.926380 550.337341,26.173878 
z"/>
<path fill="#ADADAD" opacity="1.000000" stroke="none" 
	d="
M1102.055420,90.000000 
	C1102.055542,72.228844 1102.055542,54.957691 1102.055542,37.342888 
	C1109.770508,37.342888 1116.996948,37.342888 1124.725708,37.342888 
	C1124.725708,40.979450 1124.725708,44.534370 1124.725708,49.062080 
	C1126.515991,47.166512 1127.797241,46.153889 1128.645386,44.857876 
	C1135.787109,33.944721 1146.927246,33.423958 1157.410767,37.914131 
	C1160.136597,39.081661 1161.688232,40.560005 1160.269409,44.058449 
	C1158.050537,49.529270 1156.404175,55.232254 1154.710083,60.258953 
	C1149.450317,59.632221 1144.714478,58.539242 1140.007202,58.650814 
	C1134.968140,58.770248 1130.764648,62.784702 1130.030762,67.810829 
	C1128.744995,76.618690 1127.479492,85.474663 1127.053101,94.351189 
	C1126.542847,104.977470 1126.924316,115.646446 1126.901978,126.296890 
	C1126.901367,126.605827 1126.703125,126.914360 1126.322510,128.021561 
	C1119.205688,128.021561 1111.789795,128.149872 1104.391968,127.842903 
	C1103.560791,127.808418 1102.180664,125.321732 1102.158203,123.954124 
	C1101.975342,112.805191 1102.055298,101.651939 1102.055420,90.000000 
z"/>
<path fill="#27AEE3" opacity="1.000000" stroke="none" 
	d="
M230.200531,119.187134 
	C212.167221,137.547897 185.205521,126.422325 180.625366,105.536255 
	C177.397888,90.818542 187.459656,74.598145 202.656082,71.073822 
	C215.766693,68.033226 228.364975,75.180244 234.124420,84.812202 
	C240.580887,95.609825 239.163330,108.537682 230.200531,119.187134 
z"/>
<path fill="#27AEE3" opacity="1.000000" stroke="none" 
	d="
M49.065285,120.182739 
	C29.309258,130.170609 8.521735,119.098549 6.540003,97.450432 
	C5.255370,83.417313 15.482552,68.580429 33.140743,67.371231 
	C50.361748,66.191971 62.615097,80.117111 63.030735,94.101196 
	C63.371059,105.551414 58.621731,113.831734 49.065285,120.182739 
z"/>
<path fill="#2CB0E4" opacity="1.000000" stroke="none" 
	d="
M531.962524,65.000000 
	C531.962769,84.799103 531.879150,104.098885 532.034058,123.396744 
	C532.064941,127.245163 531.026550,128.830322 526.959229,128.582291 
	C521.820862,128.268967 516.648743,128.524231 511.491394,128.497314 
	C509.217255,128.485443 507.166870,128.323135 507.172028,125.116943 
	C507.218933,96.021179 507.199524,66.925308 507.199524,37.407722 
	C515.358643,37.407722 523.240173,37.407722 531.962585,37.407722 
	C531.962585,46.356735 531.962585,55.428368 531.962524,65.000000 
z"/>
<path fill="#2DB0E4" opacity="1.000000" stroke="none" 
	d="
M1074.397461,191.999908 
	C1074.397461,180.508469 1074.532837,169.514450 1074.324341,158.526978 
	C1074.250488,154.636292 1075.451172,153.234818 1079.441528,153.306641 
	C1087.520386,153.452057 1087.524292,153.258209 1087.524414,161.500900 
	C1087.524536,177.988068 1087.524414,194.475220 1087.524414,210.962387 
	C1087.524414,212.761566 1087.524414,214.560745 1087.524414,216.682373 
	C1083.007202,216.682373 1078.968994,216.682373 1074.397095,216.682373 
	C1074.397095,208.405014 1074.397095,200.452469 1074.397461,191.999908 
z"/>
<path fill="#2DB0E4" opacity="1.000000" stroke="none" 
	d="
M181.993469,147.971420 
	C181.317780,146.924896 180.097412,145.919968 180.071350,144.884995 
	C179.899521,138.059830 179.823593,131.221848 180.092453,124.402870 
	C180.165192,122.558289 181.535263,120.764862 182.720581,117.984612 
	C189.938431,127.096855 198.016281,132.151917 208.807663,132.274994 
	C219.702301,132.399261 227.800827,127.410652 234.260498,119.258141 
	C239.867310,122.583778 238.814316,132.248581 232.111694,140.983139 
	C218.261490,133.616699 204.289688,136.345871 190.508835,141.043076 
	C187.318649,142.130463 184.785233,145.144684 181.947784,147.628067 
	C181.945953,147.983856 182.001221,147.999130 181.993469,147.971420 
z"/>
<path fill="#32B2E5" opacity="1.000000" stroke="none" 
	d="
M521.945618,3.216763 
	C533.926208,3.402491 532.283936,1.493026 532.360535,13.317238 
	C532.442505,25.970219 532.379028,25.970631 519.933899,25.970633 
	C507.171936,25.970634 507.171967,25.970634 507.171783,13.317479 
	C507.171722,10.193402 507.171722,7.069325 507.171722,3.216644 
	C512.273499,3.216644 516.865601,3.216644 521.945618,3.216763 
z"/>
<path fill="#FBFDFE" opacity="1.000000" stroke="none" 
	d="
M1218.512695,204.307465 
	C1217.441040,199.030045 1216.104858,194.073547 1215.947510,189.079880 
	C1215.806885,184.621567 1221.221680,179.528641 1225.072876,179.356705 
	C1228.828491,179.189011 1233.432617,182.908142 1234.118042,187.728836 
	C1234.706665,191.867813 1234.883057,196.363098 1233.891479,200.366333 
	C1231.907837,208.374924 1225.025879,210.068298 1218.512695,204.307465 
z"/>
<path fill="#FBFDFE" opacity="1.000000" stroke="none" 
	d="
M1117.557617,180.987640 
	C1122.799927,180.344437 1126.939697,181.500854 1129.314087,186.076553 
	C1131.412842,190.121078 1129.996460,201.507111 1127.288818,204.453735 
	C1123.063477,209.052399 1113.738403,207.721527 1111.420776,201.927963 
	C1108.416260,194.417572 1108.407959,182.863846 1117.557617,180.987640 
z"/>
<path fill="#FEFEFE" opacity="1.000000" stroke="none" 
	d="
M870.964417,93.528290 
	C868.216187,102.516365 863.907043,105.905151 854.968323,106.004128 
	C843.225830,106.134155 831.480713,106.036041 819.367188,106.036041 
	C819.367188,95.727638 819.367188,85.046791 819.367188,73.398750 
	C829.716064,73.908539 839.755127,74.382599 849.791260,74.910416 
	C852.649414,75.060722 855.654480,74.865334 858.325562,75.690933 
	C868.664246,78.886475 871.077209,82.417145 870.964417,93.528290 
z"/>
<path fill="#FFFFFF" opacity="1.000000" stroke="none" 
	d="
M826.086914,25.004807 
	C834.736389,24.994070 842.913452,24.643436 851.050903,25.062159 
	C860.362488,25.541296 866.583374,28.869610 865.986206,39.959415 
	C865.663269,45.956253 861.729370,51.472961 855.388245,51.776577 
	C843.498047,52.345879 831.561157,51.940472 819.321289,51.940472 
	C819.321289,43.621017 819.321289,34.711472 819.321289,25.004805 
	C821.425476,25.004805 823.511292,25.004805 826.086914,25.004807 
z"/>
<path fill="#FFFFFF" opacity="1.000000" stroke="none" 
	d="
M1188.176147,100.634338 
	C1183.740234,87.476906 1182.826294,74.585266 1189.560791,62.459362 
	C1192.560059,57.059067 1198.353882,54.663525 1204.857910,55.043457 
	C1211.683960,55.442196 1217.268188,58.267456 1219.911255,64.652191 
	C1224.523071,75.792175 1224.729370,87.358337 1220.646362,98.684074 
	C1215.850586,111.986526 1201.965820,112.894569 1192.787842,106.731033 
	C1190.883179,105.451942 1189.815918,102.925674 1188.176147,100.634338 
z"/>
<path fill="#FEFEFE" opacity="1.000000" stroke="none" 
	d="
M1036.579346,92.195061 
	C1045.009399,89.889931 1053.088135,87.746330 1061.724609,85.454735 
	C1062.408447,93.100121 1062.748047,99.900070 1058.786987,106.166840 
	C1054.836304,112.417122 1040.675415,114.359840 1034.961670,109.660828 
	C1029.975342,105.560074 1028.995239,96.973587 1036.579346,92.195061 
z"/>
<path fill="#FFFFFF" opacity="1.000000" stroke="none" 
	d="
M940.286865,61.195343 
	C947.841797,55.687843 955.646667,54.431656 963.663757,58.825539 
	C970.214783,62.415867 974.273071,67.905884 974.273438,75.814339 
	C974.273743,81.185204 974.943420,86.602142 974.438354,91.915268 
	C973.806091,98.566612 967.523376,107.301933 958.726135,109.192245 
	C950.004700,111.066269 942.258484,108.417770 937.463379,101.347244 
	C929.705322,89.907990 930.873779,71.700172 940.286865,61.195343 
z"/>
</svg>