<?xml version="1.0" encoding="UTF-8" standalone="no"?>
<!-- Created with Inkscape (http://www.inkscape.org/) -->

<svg
   width="86.519493mm"
   height="78.819092mm"
   viewBox="0 0 86.519493 78.819092"
   version="1.1"
   id="svg1"
   xml:space="preserve"
   inkscape:version="1.3.2 (091e20e, 2023-11-25, custom)"
   sodipodi:docname="switchboard.svg"
   inkscape:export-filename="switchboard-150.png"
   inkscape:export-xdpi="29.360001"
   inkscape:export-ydpi="29.360001"
   xmlns:inkscape="http://www.inkscape.org/namespaces/inkscape"
   xmlns:sodipodi="http://sodipodi.sourceforge.net/DTD/sodipodi-0.dtd"
   xmlns="http://www.w3.org/2000/svg"
   xmlns:svg="http://www.w3.org/2000/svg"><sodipodi:namedview
     id="namedview1"
     pagecolor="#ffffff"
     bordercolor="#000000"
     borderopacity="0.25"
     inkscape:showpageshadow="2"
     inkscape:pageopacity="0.0"
     inkscape:pagecheckerboard="0"
     inkscape:deskcolor="#d1d1d1"
     inkscape:document-units="mm"
     inkscape:zoom="0.5"
     inkscape:cx="512"
     inkscape:cy="557"
     inkscape:window-width="2400"
     inkscape:window-height="1261"
     inkscape:window-x="-9"
     inkscape:window-y="-9"
     inkscape:window-maximized="1"
     inkscape:current-layer="layer1"
     showgrid="false" /><defs
     id="defs1" /><g
     inkscape:label="Layer 1"
     inkscape:groupmode="layer"
     id="layer1"
     transform="translate(-64.062868,-99.913526)"><path
       style="fill:#24ade3;fill-opacity:1"
       d="m 100.04308,178.67398 c -11.012843,-1.32453 -17.430743,-3.00717 -24.168083,-6.33636 -4.14683,-2.04911 -7.54456,-4.90298 -8.5235,-7.15917 -0.6604,-1.52205 -0.68835,-8.12483 -0.0432,-10.21263 0.93526,-3.02673 2.79744,-4.16991 6.78751,-4.16681 2.71823,0.002 6.93264,0.66647 8.43888,1.33029 3.4874,1.53694 4.29147,2.91768 4.46309,7.66399 0.1376,3.8054 0.18594,4.02965 1.07423,4.98312 1.89748,2.03671 6.51297,3.2862 13.913423,3.76659 7.45554,0.48396 15.2317,0.10911 20.17818,-0.97271 3.3931,-0.74208 5.52407,-1.77733 6.62358,-3.21782 0.72366,-0.94808 0.75971,-1.13551 0.90718,-4.71723 0.13036,-3.16606 0.23812,-3.86671 0.71278,-4.63473 1.59679,-2.58367 4.6805,-3.77295 10.64913,-4.10701 3.98562,-0.22308 5.61338,0.19762 6.99074,1.80675 0.52036,0.60793 1.07572,1.52983 1.23413,2.04866 0.44997,1.47382 0.62505,7.98507 0.25456,9.46732 -0.96195,3.8485 -7.36886,8.27068 -15.93901,11.00143 -8.58417,2.73522 -13.13715,3.38959 -24.29317,3.49154 -4.58391,0.0419 -8.7511,0.026 -9.26042,-0.0352 z m 2.11667,-12.42556 c -4.843863,-0.27641 -8.877323,-0.97958 -10.790793,-1.88122 -0.49227,-0.23196 -1.15174,-0.89202 -1.52136,-1.52273 l -0.65243,-1.1133 v -13.10738 c 0,-10.33427 0.0717,-13.16691 0.33903,-13.38875 0.25733,-0.21357 0.82413,0.24443 2.3522,1.90067 7.57068,8.20569 19.295653,9.69678 28.766773,3.65833 1.311,-0.83585 4.50828,-3.83013 5.67283,-5.31265 1.03482,-1.31737 1.09751,-0.6466 1.17919,12.61713 0.0548,8.89726 -0.0118,12.94505 -0.22569,13.7198 -0.88832,3.21766 -4.82004,4.24725 -16.91766,4.4302 -3.56526,0.0539 -7.2562,0.0539 -8.20209,-1e-4 z M 87.263527,154.36933 c -1.31158,-2.9135 -4.30475,-4.3125 -11.00378,-5.14315 -3.23932,-0.40165 -6.11334,0.15536 -7.93596,1.53807 l -0.89534,0.67924 -0.76669,-0.91833 c -1.42927,-1.71193 -2.59226,-4.82561 -2.59887,-6.95796 -0.002,-0.76886 0.18298,-1.19866 0.77025,-1.78593 1.01485,-1.01485 1.42952,-0.97593 2.322,0.21792 2.08595,2.79037 5.5625,4.56493 8.94315,4.56493 3.57453,0 7.39132,-1.99396 9.24289,-4.82865 0.2614,-0.40018 0.57875,-0.7276 0.70524,-0.7276 0.12649,0 0.59283,0.32742 1.03631,0.7276 l 0.80633,0.72761 -0.0746,6.48229 -0.0745,6.48229 z m 42.677483,-5.87123 c 0,-3.71619 0.0711,-4.57405 0.40201,-4.84866 0.33807,-0.28057 0.58145,-0.14366 1.53041,0.86097 2.38913,2.52928 5.61263,3.81274 8.98144,3.57602 3.25446,-0.22868 4.91297,-0.99671 7.55691,-3.49948 1.34833,-1.27634 1.42053,-1.30936 1.78593,-0.81653 0.20944,0.28247 0.38253,0.93732 0.38463,1.45521 0.005,1.14179 -0.96077,4.2067 -1.58628,5.03596 -0.43083,0.57117 -0.48601,0.57965 -1.11012,0.17072 -2.11085,-1.38309 -6.04281,-1.6409 -10.81778,-0.7093 -2.98333,0.58205 -5.21918,1.49196 -6.39955,2.60439 l -0.7276,0.68572 z m 5.95312,-3.35657 c -4.12008,-2.06086 -6.00847,-5.03481 -6.00037,-9.44977 0.004,-1.95882 0.11476,-2.51732 0.80341,-4.03611 3.40324,-7.50567 13.58936,-8.41026 18.11337,-1.60857 3.41024,5.12718 1.58117,12.18341 -3.88673,14.99426 -1.45581,0.74838 -1.90498,0.84333 -4.39947,0.93003 -2.73211,0.095 -2.8088,0.0812 -4.63021,-0.82984 z m -61.912513,-0.78798 c -1.50372,-0.3869 -2.75904,-0.99795 -4.10017,-1.99583 -1.38911,-1.03358 -1.79361,-1.56175 -2.8519,-3.72376 -0.8925,-1.82332 -0.96665,-2.15454 -0.95373,-4.26025 0.0121,-1.97948 0.12235,-2.51474 0.82843,-4.02361 1.6575,-3.542 4.60614,-5.65073 8.28974,-5.92846 4.55589,-0.3435 8.01552,1.62385 10.09096,5.73831 0.79872,1.58343 0.86751,1.91909 0.86751,4.23334 0,2.26301 -0.0819,2.68631 -0.82142,4.24694 -1.09928,2.3198 -3.06399,4.23579 -5.23449,5.1047 -2.07238,0.82963 -4.36793,1.05811 -6.11493,0.60862 z m 30.030223,-2.4263 c -9.353353,-1.92429 -16.361823,-10.01422 -16.860223,-19.46191 -0.41,-7.77173 2.56915,-14.04512 8.92444,-18.79276 1.39895,-1.04508 3.84485,-2.20772 6.348283,-3.01761 1.96728,-0.63645 2.67976,-0.72922 5.68854,-0.74073 2.81974,-0.0108 3.82103,0.096 5.55625,0.59279 7.60229,2.17632 12.79693,7.31637 15.10778,14.94903 0.93057,3.07361 0.91488,8.07259 -0.0356,11.35119 -1.11327,3.84004 -2.74837,6.57702 -5.5594,9.30583 -2.82038,2.73788 -4.40453,3.74524 -7.79297,4.95554 -3.63643,1.29888 -7.73401,1.60812 -11.37708,0.85863 z"
       id="path1" /><path
       style="fill:#24ade3;fill-opacity:1;stroke-width:0.0128655"
       d="m 98.393135,178.41924 c -8.811678,-1.27561 -13.250072,-2.32198 -18.367481,-4.33021 -6.792849,-2.66572 -12.024233,-6.56531 -12.787119,-9.53181 -0.269978,-1.04982 -0.267486,-7.94967 0.0033,-9.03872 1.031119,-4.14746 3.877075,-5.27553 10.869097,-4.30826 3.001306,0.4152 4.60648,0.92873 6.186752,1.9793 2.005859,1.33348 2.403774,2.43882 2.675488,7.43199 0.173116,3.18132 0.302693,3.60218 1.397722,4.53974 2.821038,2.41536 9.347456,3.58794 20.021556,3.59721 10.65544,0.009 17.42959,-1.3031 20.00267,-3.87511 1.01387,-1.01345 1.13209,-1.38945 1.28568,-4.089 0.29378,-5.16351 0.39523,-5.56103 1.76995,-6.93576 1.86487,-1.86486 5.7681,-2.88896 10.99908,-2.88583 3.20933,0.002 4.15351,0.30441 5.4495,1.74586 1.37559,1.52998 1.5898,2.38287 1.71846,6.84213 0.14189,4.91785 -0.13024,5.78872 -2.57177,8.23015 -2.93237,2.93224 -7.17671,5.24426 -13.40715,7.30328 -4.5404,1.5005 -8.44437,2.42785 -12.1977,2.89742 -3.5626,0.44571 -5.33275,0.52189 -13.40331,0.57689 -6.66092,0.0454 -8.496258,0.017 -9.644693,-0.14927 z"
       id="path2" /><path
       style="fill:#ababab;fill-opacity:1;stroke:none;stroke-width:0.00600001"
       d="m 100.17786,178.65285 c -0.12733,-0.0154 -0.603578,-0.0729 -1.05833,-0.12778 -3.432509,-0.41421 -7.655788,-1.11782 -10.351823,-1.72465 -4.092099,-0.92106 -7.721555,-2.11972 -11.145573,-3.68094 -2.242468,-1.02248 -3.429455,-1.66706 -5.027083,-2.72989 -2.39304,-1.59198 -4.220483,-3.35701 -5.006123,-4.83515 -0.508032,-0.95584 -0.692483,-2.42226 -0.689488,-5.48153 0.0034,-3.46452 0.226033,-4.92457 0.973333,-6.38307 0.866399,-1.69095 2.282277,-2.53541 4.67025,-2.78545 0.822278,-0.0861 3.112675,-0.0462 4.15307,0.0724 1.945306,0.22166 3.834976,0.56081 5.00413,0.89812 0.704588,0.20327 1.985394,0.81418 2.674726,1.27576 0.576625,0.38612 1.342025,1.16132 1.596919,1.61738 0.65151,1.16567 0.856554,2.27964 1.010767,5.49131 0.152035,3.16631 0.22716,3.55258 0.832376,4.27982 1.645574,1.97735 5.418463,3.20917 11.734467,3.8312 8.533442,0.84041 18.915332,0.3436 24.178812,-1.15705 2.5968,-0.74036 4.20606,-1.65755 5.15559,-2.9384 0.60783,-0.81992 0.67283,-1.16339 0.8265,-4.36734 0.10028,-2.09073 0.18768,-3.18201 0.30396,-3.79515 0.13142,-0.69294 0.63866,-1.53723 1.35235,-2.25091 1.81155,-1.81155 4.78563,-2.68113 10.09209,-2.95078 1.97484,-0.10035 3.53378,0.0233 4.46364,0.35403 1.06654,0.37935 1.8575,1.03785 2.63484,2.19359 0.68742,1.02205 0.83534,1.55206 0.99465,3.56396 0.21821,2.75575 0.18807,6.24289 -0.0624,7.21781 -0.4844,1.88554 -2.46141,4.1017 -5.42391,6.07997 -3.07936,2.05632 -6.76063,3.71885 -11.41015,5.15305 -6.79884,2.09717 -10.68056,2.76559 -17.9586,3.09241 -1.48979,0.0669 -14.06269,0.14251 -14.51901,0.0873 z"
       id="path32" /><path
       style="fill:#ababab;fill-opacity:1;stroke:none;stroke-width:0.012"
       d="m 100.0125,178.5723 c -2.875049,-0.30375 -8.601127,-1.2554 -11.509376,-1.9128 -8.899356,-2.01165 -17.136063,-6.1317 -20.105251,-10.05675 -1.279504,-1.69141 -1.452465,-2.62153 -1.355439,-7.28906 0.07155,-3.44196 0.177165,-4.11704 0.852839,-5.45128 0.723953,-1.42958 1.628383,-2.17564 3.148446,-2.59714 2.156577,-0.598 6.458839,-0.36322 10.117217,0.55211 2.074826,0.51912 4.093133,1.83438 4.795666,3.12517 0.547637,1.00619 0.741658,2.08945 0.961101,5.36605 0.13539,2.02155 0.270807,3.18617 0.4113,3.5373 0.471573,1.17858 2.39349,2.47256 4.79134,3.2259 5.434004,1.7072 16.738887,2.26465 25.599577,1.26232 6.10105,-0.69016 9.60928,-1.92808 11.13798,-3.93017 0.2515,-0.32938 0.51795,-0.8242 0.59211,-1.09962 0.0742,-0.27541 0.22266,-1.88905 0.33,-3.58587 0.22121,-3.49692 0.24343,-3.64469 0.67743,-4.50595 0.72459,-1.43792 2.47924,-2.68174 4.68342,-3.31996 3.07497,-0.89035 8.55422,-1.21557 10.55648,-0.62657 1.6154,0.47519 3.25987,2.36226 3.59908,4.13002 0.24548,1.27931 0.40385,5.54739 0.27098,7.30279 -0.14803,1.95569 -0.40657,2.61731 -1.60481,4.10681 -2.50744,3.11693 -7.79647,6.15654 -14.4803,8.32183 -6.39929,2.07312 -10.68664,2.90048 -16.86719,3.25501 -2.39153,0.13718 -15.66457,0.28897 -16.6026,0.18986 z"
       id="path33" /><path
       style="fill:#ababab;fill-opacity:1;stroke:none;stroke-width:0.012"
       d="m 100.0125,178.56849 c -1.08356,-0.0961 -6.159221,-0.85735 -8.268231,-1.24007 -11.017673,-1.99941 -20.744124,-6.63568 -23.780998,-11.3356 -0.829223,-1.28333 -0.891397,-1.70086 -0.891397,-5.98605 0,-4.15723 0.06803,-4.64903 0.860144,-6.2182 0.711997,-1.41046 1.631641,-2.13065 3.314978,-2.59602 1.24713,-0.34478 4.729866,-0.30731 7.183657,0.0773 3.221469,0.50491 5.103077,1.20992 6.507041,2.43807 1.350841,1.18169 1.693939,2.31037 1.9807,6.51591 0.107315,1.57383 0.259945,3.10645 0.339177,3.40583 0.294513,1.11281 2.12181,2.47331 4.42582,3.29521 3.357118,1.19757 9.267349,1.86017 16.597339,1.86074 9.61496,7.9e-4 16.08781,-1.06431 19.25837,-3.1688 0.80681,-0.53553 1.65892,-1.57322 1.89092,-2.30272 0.081,-0.25466 0.23806,-1.8853 0.34906,-3.62365 0.111,-1.73834 0.23913,-3.31592 0.28472,-3.50573 0.33029,-1.37495 1.59064,-2.76297 3.25181,-3.58119 1.81145,-0.89223 3.97819,-1.34521 7.58302,-1.58528 2.58496,-0.17216 4.35565,-5.3e-4 5.43867,0.52727 1.38999,0.67737 2.66978,2.34267 2.95912,3.85052 0.24638,1.28403 0.40385,5.54741 0.27014,7.31394 -0.10933,1.44442 -0.17898,1.76857 -0.53465,2.48843 -1.80392,3.651 -7.72215,7.40508 -15.76471,9.99993 -5.32446,1.71789 -9.0388,2.51725 -13.97014,3.0065 -2.82842,0.28061 -17.17126,0.5511 -19.28456,0.36369 z"
       id="path34" /><path
       style="fill:#ababab;fill-opacity:1;stroke:none;stroke-width:0.0001875"
       d="m 103.26915,178.72979 c -0.24194,-8e-4 -0.937,-0.005 -1.18546,-0.007 -1.10923,-0.01 -1.81144,-0.0263 -2.01745,-0.0476 -0.161094,-0.0167 -1.372232,-0.16825 -1.94865,-0.24386 -0.06903,-0.009 -0.126466,-0.0165 -0.127641,-0.0165 -0.0013,0 -0.0021,-0.006 -0.0021,-0.0161 v -0.0161 l 0.04392,0.006 c 0.124087,0.0165 0.478068,0.0619 0.630971,0.0811 0.282426,0.0353 0.306967,0.0383 1.241266,0.15113 0.155184,0.0187 0.297504,0.035 0.316264,0.036 0.0496,0.003 0.17026,0.006 0.32246,0.008 0.36474,0.006 0.78666,0.007 1.97662,0.007 l 1.23558,-9e-5 v 0.0296 0.0296 l -0.16794,-5.3e-4 c -0.0924,-2.6e-4 -0.23539,-7.9e-4 -0.31782,-7.9e-4 z"
       id="path35" /><path
       style="fill:#ababab;fill-opacity:1;stroke:none;stroke-width:0.0001875"
       d="m 101.56176,178.67124 c -0.0131,-8e-4 0.007,-8e-4 0.0444,-2.7e-4 0.0375,5.3e-4 0.0686,10e-4 0.0691,0.002 0.001,0.001 -0.0864,1e-4 -0.11352,-0.001 z"
       id="path36" /><path
       style="fill:#ababab;fill-opacity:1;stroke:none;stroke-width:9.37501e-05"
       d="m 102.34672,178.72441 c -1.23216,-0.009 -2.05727,-0.0267 -2.27893,-0.0496 -0.04,-0.004 -0.155852,-0.0178 -0.299206,-0.0354 l -0.05271,-0.006 -2.65e-4,-0.0174 -2.64e-4,-0.0174 0.0039,5.3e-4 c 0.0021,2.7e-4 0.05599,0.007 0.119656,0.0145 0.232049,0.0279 0.325059,0.0386 0.314189,0.0361 -0.001,-2.6e-4 -0.0986,-0.0121 -0.216521,-0.0263 -0.117951,-0.0142 -0.215969,-0.0261 -0.217816,-0.0264 l -0.0034,-5.3e-4 v -0.26763 -0.26764 h 1.441777 1.44177 v 0.30557 0.30558 l -0.5041,-5.3e-4 c -0.27726,-2.7e-4 -0.43086,-1.9e-4 -0.34133,2e-4 0.0895,2.6e-4 0.31638,7.9e-4 0.50411,7.9e-4 l 0.34132,1.5e-4 v 0.0263 0.0264 l -0.0716,-1.8e-4 c -0.0394,-9e-5 -0.12064,-5.2e-4 -0.18061,-10e-4 z m -0.87023,-0.0538 c -0.0543,-5.3e-4 -0.20544,-0.001 -0.3359,-0.002 -0.4695,-0.002 -0.77779,-0.006 -0.90433,-0.0124 -0.0418,-0.002 -0.0436,-0.002 -0.0362,-10e-4 0.064,0.009 0.64523,0.0162 1.22266,0.0162 h 0.15245 z m -1.28648,-0.0171 c -0.001,-2.5e-4 -0.003,-2.5e-4 -0.005,0 -0.001,2.4e-4 -2.4e-4,5.3e-4 0.002,5.3e-4 0.003,0 0.004,-2.1e-4 0.002,-5.3e-4 z m -0.0109,-0.001 c -10e-4,-2.6e-4 -0.003,-2.6e-4 -0.004,0 -0.001,2.6e-4 -1.8e-4,5.3e-4 0.002,5.3e-4 0.002,0 0.003,-2.1e-4 0.002,-5.3e-4 z m -0.008,-0.001 c -0.001,-2.6e-4 -0.003,-2.6e-4 -0.004,0 -10e-4,2.6e-4 -1.8e-4,5.3e-4 0.002,5.3e-4 0.002,0 0.003,-2.2e-4 0.002,-5.3e-4 z m -0.009,-0.001 c -0.001,-2.6e-4 -0.003,-2.6e-4 -0.004,0 -10e-4,2.6e-4 -1.8e-4,5.3e-4 0.002,5.3e-4 0.002,0 0.003,-2.1e-4 0.002,-5.3e-4 z"
       id="path37" /><path
       style="fill:#ababab;fill-opacity:1;stroke:none;stroke-width:9.37501e-05"
       d="m 102.34672,178.72441 c -1.18173,-0.008 -1.9922,-0.0253 -2.25154,-0.047 -0.037,-0.003 -0.193875,-0.0214 -0.364836,-0.0426 l -0.01447,-0.002 -2.64e-4,-0.0174 -2.65e-4,-0.0174 0.0044,5.3e-4 c 0.01357,0.002 0.270761,0.0326 0.345485,0.0413 0.0789,0.009 0.0788,0.009 0.08,0.009 5.3e-4,-2e-4 -0.0948,-0.0119 -0.212083,-0.026 -0.117239,-0.0141 -0.214206,-0.0259 -0.215487,-0.0262 l -0.0024,-5.2e-4 v -0.26758 -0.26757 h 1.44177 1.44178 v 0.30541 0.3054 l -0.32634,2.7e-4 -0.32634,2.6e-4 0.32634,2.5e-4 0.32634,2.6e-4 v 0.0263 0.0264 l -0.0716,-1.8e-4 c -0.0394,-9e-5 -0.12064,-5.3e-4 -0.18061,-10e-4 z m -0.88005,-0.0538 c -0.0517,-5.3e-4 -0.19986,-0.001 -0.32918,-0.002 -0.50648,-0.002 -0.81355,-0.007 -0.93276,-0.0139 -0.007,-5.3e-4 -0.007,-2.6e-4 -0.003,5.3e-4 0.0454,0.008 0.64557,0.0162 1.21442,0.0162 l 0.1447,1e-5 z m 0.41427,2.7e-4 c -0.0268,-1.6e-4 -0.071,-1.6e-4 -0.0982,0 -0.0272,1.5e-4 -0.005,2.6e-4 0.0487,2.6e-4 0.054,0 0.0763,-1.3e-4 0.0494,-2.6e-4 z m -1.69197,-0.0175 c -7.9e-4,-2.7e-4 -0.002,-2.7e-4 -0.003,0 -7.9e-4,2.6e-4 -1.3e-4,5.3e-4 0.001,5.3e-4 0.001,0 0.002,-2.4e-4 0.001,-5.3e-4 z m -0.0104,-0.001 c -7.9e-4,-2.7e-4 -0.002,-2.7e-4 -0.003,0 -7.9e-4,2.6e-4 -1.2e-4,5.3e-4 0.001,5.3e-4 0.001,0 0.002,-2.4e-4 0.001,-5.3e-4 z m -0.008,-0.001 c -7.9e-4,-2.6e-4 -0.002,-2.6e-4 -0.003,0 -7.9e-4,2.6e-4 -1.2e-4,5.3e-4 0.001,5.3e-4 10e-4,0 0.002,-2.4e-4 10e-4,-5.3e-4 z m -0.009,-10e-4 c -7.9e-4,-2.6e-4 -0.002,-2.6e-4 -0.003,0 -7.9e-4,2.7e-4 -1.3e-4,5.3e-4 0.001,5.3e-4 0.001,0 0.002,-2.3e-4 0.001,-5.3e-4 z m -0.008,-0.001 c -7.9e-4,-2.6e-4 -0.002,-2.6e-4 -0.003,-4e-5 -0.001,2.7e-4 -5.3e-4,5.3e-4 0.001,5.3e-4 0.002,2e-5 0.003,-1.9e-4 0.002,-5.3e-4 z"
       id="path38" /><path
       style="fill:#ababab;fill-opacity:1;stroke:none;stroke-width:9.37501e-05"
       d="m 102.34104,178.72441 c -1.16111,-0.008 -2.02546,-0.0262 -2.25826,-0.0481 -0.0387,-0.004 -0.144719,-0.0161 -0.326856,-0.0384 l -0.04057,-0.005 v -0.0173 c 0,-0.01 2.36e-4,-0.0173 5.29e-4,-0.0173 2.65e-4,0 0.02761,0.003 0.06072,0.007 0.101441,0.0122 0.11793,0.0142 0.18474,0.0222 0.110157,0.0131 0.163717,0.0192 0.165877,0.0189 0.001,-1.7e-4 -0.0221,-0.003 -0.0517,-0.007 -0.241201,-0.029 -0.355882,-0.0428 -0.357861,-0.0432 l -0.0024,-5.3e-4 v -0.26766 -0.26766 h 1.441771 1.44177 v 0.3054 0.30541 l -0.24107,2.6e-4 -0.24107,2.6e-4 0.24107,2.6e-4 0.24107,2.5e-4 v 0.0264 0.0264 l -0.0716,-1.7e-4 c -0.0394,-1e-4 -0.12319,-5.3e-4 -0.18629,-0.001 z m -0.80161,-0.0531 c -2.5e-4,-2.5e-4 -0.10439,-0.001 -0.23142,-0.002 -0.52768,-0.003 -0.80342,-0.005 -0.98597,-0.0104 -0.0352,-0.001 -0.058,-0.002 -0.10284,-0.004 -0.008,-2.6e-4 -0.0153,-5.3e-4 -0.015,-1e-4 0.002,0.002 0.1021,0.005 0.25528,0.009 0.0754,0.002 0.25746,0.004 0.42633,0.005 0.16853,0.002 0.65457,0.003 0.65361,0.002 z m 0.28566,-2.7e-4 c -0.003,-2.1e-4 -0.008,-2.1e-4 -0.0114,0 -0.003,2e-4 -8e-4,2.6e-4 0.005,2.6e-4 0.006,1e-5 0.009,-1.6e-4 0.006,-2.6e-4 z m -1.62268,-0.0164 c -8e-4,-2.7e-4 -0.002,-2.7e-4 -0.003,0 -8e-4,2.6e-4 -1.3e-4,5.3e-4 0.001,5.3e-4 10e-4,0 0.002,-2.4e-4 10e-4,-5.3e-4 z m -0.0502,-0.005 c -2.7e-4,-2.6e-4 -10e-4,-2.6e-4 -0.002,-8e-5 -8e-4,2.6e-4 -5.3e-4,5.3e-4 5.3e-4,5.3e-4 0.001,4e-5 0.002,-2e-4 0.001,-5.3e-4 z m -0.009,-0.001 c -8e-4,-2.6e-4 -0.002,-2.6e-4 -0.003,-4e-5 -10e-4,2.7e-4 -5.3e-4,5.3e-4 0.001,5.3e-4 0.002,3e-5 0.003,-1.9e-4 0.002,-5.3e-4 z m -0.008,-0.001 c -0.001,-2.5e-4 -0.003,-2.6e-4 -0.004,-2e-5 -10e-4,2.5e-4 -5.3e-4,5.3e-4 0.002,5.3e-4 0.002,2e-5 0.003,-1.9e-4 0.002,-5.3e-4 z"
       id="path39" /><path
       style="fill:#ababab;fill-opacity:1;stroke:none;stroke-width:9.37501e-05"
       d="m 102.33225,178.72441 c -0.59329,-0.004 -1.23941,-0.0127 -1.58129,-0.0211 -0.15463,-0.004 -0.21473,-0.005 -0.2987,-0.008 -0.1714,-0.006 -0.29088,-0.0117 -0.36328,-0.0181 -0.0378,-0.003 -0.131449,-0.0143 -0.303084,-0.0352 l -0.07054,-0.009 v -0.0173 c 0,-0.011 2.65e-4,-0.0173 0.0011,-0.0173 5.3e-4,0 0.01254,0.001 0.02661,0.003 0.0506,0.006 0.215958,0.026 0.276194,0.0331 0.0338,0.004 0.0677,0.008 0.0752,0.009 0.007,7.9e-4 0.0145,0.001 0.0155,0.001 0.001,-2.1e-4 -0.003,-0.001 -0.009,-0.002 -0.006,-7.9e-4 -0.0706,-0.008 -0.143656,-0.0173 -0.07305,-0.009 -0.156297,-0.0189 -0.185002,-0.0223 -0.02871,-0.003 -0.05324,-0.006 -0.05452,-0.007 l -0.0024,-5.3e-4 v -0.26766 -0.26767 h 1.441768 1.44178 v 0.30541 0.3054 l -0.13514,2.6e-4 -0.13513,2.7e-4 0.13513,2.5e-4 0.13514,2.6e-4 v 0.0264 0.0264 l -0.0773,-1.7e-4 c -0.0425,-9e-5 -0.12772,-5.3e-4 -0.1894,-10e-4 z m -0.80623,-0.0531 c -2.4e-4,-2.3e-4 -0.10299,-0.001 -0.22833,-0.002 -0.63919,-0.003 -0.92631,-0.007 -1.079,-0.0142 -0.008,-2.6e-4 -0.0137,-5.3e-4 -0.0134,-9e-5 2.6e-4,2.6e-4 0.009,0.001 0.0202,0.002 0.10629,0.006 0.47705,0.0116 0.90072,0.0135 0.21047,8e-4 0.40046,10e-4 0.39989,8e-4 z m -1.38306,-0.0229 c -2.7e-4,-2.7e-4 -0.001,-2.7e-4 -0.002,-8e-5 -8e-4,2.6e-4 -5.3e-4,5.3e-4 5.3e-4,5.3e-4 10e-4,4e-5 0.002,-2.1e-4 10e-4,-5.3e-4 z m -0.008,-0.001 c -7.9e-4,-2.7e-4 -0.002,-2.7e-4 -0.003,0 -8e-4,2.6e-4 -1.3e-4,5.3e-4 10e-4,5.3e-4 0.001,0 0.002,-2.4e-4 0.001,-5.3e-4 z m -0.009,-0.001 c -8e-4,-2.7e-4 -0.002,-2.7e-4 -0.003,-4e-5 -0.001,2.6e-4 -5.3e-4,5.3e-4 10e-4,5.3e-4 0.002,2e-5 0.003,-2e-4 0.002,-5.3e-4 z m -0.008,-0.001 c -10e-4,-2.6e-4 -0.003,-2.6e-4 -0.004,-2e-5 -0.001,2.5e-4 -5.3e-4,5.3e-4 0.002,5.3e-4 0.002,1e-5 0.003,-1.9e-4 0.002,-5.3e-4 z"
       id="path40" /><path
       style="fill:#ababab;fill-opacity:1;stroke:none;stroke-width:9.37501e-05"
       d="m 102.32347,178.72441 c -1.0322,-0.007 -1.83187,-0.0226 -2.14819,-0.0413 -0.0886,-0.005 -0.12302,-0.009 -0.376192,-0.0398 -0.04405,-0.005 -0.0809,-0.01 -0.08191,-0.01 -0.0016,0 -0.0019,-0.002 -0.0019,-0.0176 0,-0.0105 5.29e-4,-0.0176 0.0011,-0.0176 5.3e-4,0 0.03565,0.004 0.07802,0.009 0.07314,0.009 0.223452,0.0267 0.273252,0.0326 0.0127,0.002 0.0238,0.003 0.0247,0.002 8e-4,-1.7e-4 -0.0828,-0.0105 -0.185864,-0.0229 -0.103121,-0.0124 -0.188306,-0.0228 -0.189301,-0.0231 -0.0016,-5.3e-4 -0.0019,-0.0141 -0.0019,-0.26812 v -0.26761 h 1.441775 1.44177 v 0.3054 0.3054 l -0.0819,2.7e-4 -0.0819,2.6e-4 0.0819,2.6e-4 0.0819,2.5e-4 v 0.0264 0.0264 l -0.0829,-1.7e-4 c -0.0456,-9e-5 -0.13224,-5.3e-4 -0.1925,-10e-4 z m -0.81192,-0.0531 c -2.4e-4,-2.3e-4 -0.10113,-0.001 -0.22419,-0.002 -0.589,-0.003 -0.8802,-0.007 -1.03043,-0.0125 -0.0501,-0.002 -0.052,-0.002 -0.0429,-0.001 0.042,0.004 0.28856,0.009 0.62683,0.0125 0.17252,0.002 0.67166,0.004 0.67068,0.003 z m -1.38616,-0.025 c -2.6e-4,-2.7e-4 -10e-4,-2.7e-4 -0.002,-9e-5 -7.9e-4,2.7e-4 -5.3e-4,5.3e-4 5.3e-4,5.3e-4 0.001,5e-5 0.002,-1.9e-4 0.001,-5.3e-4 z m -0.008,-0.001 c -7.9e-4,-2.7e-4 -0.002,-2.7e-4 -0.003,0 -7.9e-4,2.6e-4 -1.3e-4,5.3e-4 0.001,5.3e-4 10e-4,0 0.002,-2.4e-4 10e-4,-5.3e-4 z m -0.009,-0.001 c -0.001,-2.6e-4 -0.003,-2.6e-4 -0.004,0 -10e-4,2.6e-4 -1.8e-4,5.3e-4 0.002,5.3e-4 0.002,0 0.003,-2.1e-4 0.002,-5.3e-4 z m -0.008,-10e-4 c -0.001,-2.6e-4 -0.003,-2.6e-4 -0.004,-2e-5 -0.001,2.5e-4 -5.3e-4,5.3e-4 0.002,5.3e-4 0.002,1e-5 0.003,-1.9e-4 0.002,-5.3e-4 z"
       id="path41" /><path
       style="fill:#ababab;fill-opacity:1;stroke:none;stroke-width:9.37501e-05"
       d="m 102.31365,178.7244 c -0.90358,-0.006 -1.70961,-0.0205 -2.05052,-0.0366 -0.15331,-0.007 -0.17502,-0.009 -0.429948,-0.0403 -0.04462,-0.005 -0.08939,-0.0109 -0.09948,-0.0121 l -0.01833,-0.002 v -0.0174 c 0,-0.0113 2.64e-4,-0.0174 0.0011,-0.0174 5.29e-4,0 0.04745,0.006 0.104127,0.0124 0.178414,0.0214 0.235081,0.028 0.236741,0.0277 0.002,-2.6e-4 -0.01,-0.002 -0.216882,-0.0266 -0.06622,-0.008 -0.121451,-0.0147 -0.122732,-0.015 l -0.0024,-5.3e-4 v -0.26767 -0.26766 h 1.441774 1.44177 v 0.3054 0.30539 l -0.0426,2.7e-4 -0.0426,2.6e-4 0.0426,2.5e-4 0.0426,2.5e-4 v 0.0264 0.0264 l -0.0871,-2.1e-4 c -0.0479,-1.1e-4 -0.13707,-5.3e-4 -0.19818,-0.001 z m -0.90796,-0.0537 c -0.0523,-5.3e-4 -0.1888,-0.001 -0.30334,-0.002 -0.41572,-0.002 -0.68384,-0.006 -0.81803,-0.0104 -0.0159,-5.2e-4 -0.0371,-0.001 -0.047,-0.002 -0.0166,-5.3e-4 -0.0171,-2.7e-4 -0.006,5.3e-4 0.0416,0.003 0.21308,0.007 0.41393,0.009 0.198,0.003 0.56331,0.005 0.77979,0.005 l 0.0755,1e-5 z m -1.18881,-0.0151 c -0.001,-2.4e-4 -0.003,-2.4e-4 -0.005,0 -10e-4,2.5e-4 -2.3e-4,5.3e-4 0.002,5.3e-4 0.003,0 0.004,-2e-4 0.002,-5.3e-4 z m -0.10852,-0.0113 c -8e-4,-2.6e-4 -0.002,-2.6e-4 -0.003,0 -8e-4,2.6e-4 -1.3e-4,5.3e-4 10e-4,5.3e-4 0.001,0 0.002,-2.3e-4 0.001,-5.3e-4 z m -0.008,-10e-4 c -8e-4,-2.6e-4 -0.002,-2.6e-4 -0.003,0 -8e-4,2.7e-4 -1.3e-4,5.3e-4 0.001,5.3e-4 0.001,0 0.002,-2.4e-4 0.001,-5.3e-4 z m -0.009,-0.001 c -8e-4,-2.6e-4 -0.002,-2.6e-4 -0.003,-3e-5 -10e-4,2.6e-4 -5.3e-4,5.3e-4 0.001,5.3e-4 0.002,1e-5 0.003,-2e-4 0.002,-5.3e-4 z m -0.008,-0.001 c -0.001,-2.5e-4 -0.003,-2.6e-4 -0.004,-2e-5 -10e-4,2.5e-4 -5.3e-4,5.3e-4 0.002,5.3e-4 0.002,1e-5 0.003,-1.9e-4 0.002,-5.3e-4 z m -0.0116,-0.001 c -0.003,-5.3e-4 -0.007,-7.9e-4 -0.009,-7.9e-4 -0.003,6e-5 -0.003,1.3e-4 0.001,7.9e-4 0.003,5.3e-4 0.007,8e-4 0.009,8e-4 0.004,1e-5 0.004,-3e-5 -0.001,-8e-4 z"
       id="path42" /><path
       style="fill:#ababab;fill-opacity:1;stroke:none;stroke-width:9.37501e-05"
       d="m 102.30435,178.72441 c -1.01904,-0.007 -1.82245,-0.0228 -2.13062,-0.0413 -0.0861,-0.005 -0.12449,-0.009 -0.366501,-0.0387 -0.04923,-0.006 -0.09005,-0.0109 -0.09069,-0.0109 -7.94e-4,0 -0.0011,-0.005 -0.0011,-0.0176 0,-0.0135 2.65e-4,-0.0176 0.0013,-0.0176 7.94e-4,0 0.04176,0.005 0.09121,0.0108 0.172892,0.0208 0.204341,0.0245 0.205981,0.0241 8e-4,-1.7e-4 -0.04019,-0.005 -0.09132,-0.0115 -0.175554,-0.0212 -0.202531,-0.0244 -0.204851,-0.025 l -0.0024,-5.3e-4 v -0.26767 -0.26766 h 1.441771 1.44178 v 0.30539 0.30538 l -0.0204,2.7e-4 -0.0204,2.6e-4 0.0204,2.4e-4 0.0204,2.3e-4 v 0.0264 0.0264 l -0.0928,-1.7e-4 c -0.051,-10e-5 -0.14183,-5.3e-4 -0.2018,-10e-4 z m -0.85447,-0.0534 c -0.0144,-1.7e-4 -0.0378,-1.7e-4 -0.0522,0 -0.0144,1.6e-4 -0.003,2.6e-4 0.0261,2.6e-4 0.0287,0 0.0405,-1.3e-4 0.0261,-2.6e-4 z m -0.13255,-0.001 c -0.66017,-0.004 -0.93174,-0.007 -1.079,-0.0134 -0.008,-2.7e-4 -0.0148,-5.3e-4 -0.0145,-1.2e-4 2.6e-4,2.6e-4 0.0126,0.001 0.0274,0.002 0.1522,0.006 0.61521,0.0122 0.96738,0.0121 0.0762,-4e-5 0.12059,-1.7e-4 0.0987,-2.7e-4 z m -1.10149,-0.0145 c -7.9e-4,-2.6e-4 -0.002,-2.6e-4 -0.003,0 -7.9e-4,2.7e-4 -1.3e-4,5.3e-4 0.001,5.3e-4 10e-4,0 0.002,-2.4e-4 10e-4,-5.3e-4 z m -0.12559,-0.0134 c -2.7e-4,-2.6e-4 -10e-4,-2.6e-4 -0.002,-8e-5 -8e-4,2.7e-4 -5.3e-4,5.3e-4 5.3e-4,5.3e-4 0.001,5e-5 0.002,-2e-4 0.001,-5.3e-4 z m -0.008,-0.001 c -8e-4,-2.6e-4 -0.002,-2.6e-4 -0.003,0 -7.9e-4,2.7e-4 -1.3e-4,5.3e-4 0.001,5.3e-4 10e-4,0 0.002,-2.3e-4 10e-4,-5.3e-4 z m -0.009,-0.001 c -8e-4,-2.7e-4 -0.002,-2.7e-4 -0.003,-4e-5 -0.001,2.6e-4 -5.3e-4,5.3e-4 0.001,5.3e-4 0.002,2e-5 0.003,-1.9e-4 0.002,-5.3e-4 z m -0.008,-0.001 c -0.001,-2.6e-4 -0.003,-2.6e-4 -0.004,0 -0.001,2.6e-4 -1.8e-4,5.3e-4 0.002,5.3e-4 0.002,0 0.003,-2.1e-4 0.002,-5.3e-4 z m -0.009,-10e-4 c -0.001,-2.6e-4 -0.003,-2.6e-4 -0.004,0 -0.001,2.6e-4 -1.8e-4,5.3e-4 0.002,5.3e-4 0.002,0 0.003,-2.2e-4 0.002,-5.3e-4 z m -0.008,-0.001 c -10e-4,-2.6e-4 -0.003,-2.6e-4 -0.004,0 -0.001,2.6e-4 -1.8e-4,5.3e-4 0.002,5.3e-4 0.002,0 0.003,-2.1e-4 0.002,-5.3e-4 z m -0.008,-0.001 c -0.001,-2.6e-4 -0.003,-2.6e-4 -0.004,-2e-5 -10e-4,2.5e-4 -5.3e-4,5.3e-4 0.002,5.3e-4 0.002,1e-5 0.003,-1.9e-4 0.002,-5.3e-4 z m -0.0116,-0.001 c -0.003,-5.3e-4 -0.007,-7.9e-4 -0.009,-7.9e-4 -0.003,5e-5 -0.003,1.3e-4 0.001,7.9e-4 0.003,2.6e-4 0.006,7.9e-4 0.009,7.9e-4 0.004,2e-5 0.004,-2e-5 -0.001,-7.9e-4 z"
       id="path43" /><path
       style="fill:#ababab;fill-opacity:1;stroke:none;stroke-width:9.37501e-05"
       d="m 102.2997,178.72441 c -0.90413,-0.006 -1.69296,-0.0204 -2.03812,-0.0366 -0.1515,-0.007 -0.17053,-0.009 -0.433959,-0.0408 -0.06076,-0.007 -0.110868,-0.0134 -0.111363,-0.0134 -5.29e-4,0 -7.94e-4,-0.008 -7.94e-4,-0.0176 0,-0.0146 2.51e-4,-0.0176 0.0016,-0.0176 7.94e-4,0 0.05,0.006 0.109297,0.0129 0.05929,0.007 0.108736,0.0128 0.109874,0.0127 0.0011,-1.6e-4 -0.04793,-0.006 -0.109038,-0.0137 l -0.111104,-0.0134 -2.61e-4,-0.26794 -2.6e-4,-0.26794 h 1.441768 1.44178 v 0.30537 0.30537 l -0.01,2.6e-4 -0.01,2.7e-4 0.01,2.1e-4 0.01,2.1e-4 v 0.0264 0.0264 l -0.0943,-1.8e-4 c -0.0519,-9e-5 -0.14408,-5.3e-4 -0.2049,-10e-4 z m -1.10381,-0.0548 c -0.32006,-0.002 -0.44463,-0.003 -0.51883,-0.004 -0.0449,-5.3e-4 -0.107,-10e-4 -0.13798,-10e-4 -0.0547,-5.3e-4 -0.0551,-5.3e-4 -0.015,2.6e-4 0.13948,0.003 0.45943,0.006 0.68316,0.006 l 0.10129,8e-5 z m -0.7289,-0.007 c -0.007,-1.8e-4 -0.0198,-1.8e-4 -0.0274,0 -0.007,1.8e-4 -10e-4,2.6e-4 0.0137,2.6e-4 0.0151,0 0.0212,-1.4e-4 0.0137,-2.6e-4 z m -0.0537,-0.001 c -0.006,-1.8e-4 -0.0171,-1.8e-4 -0.0238,0 -0.007,1.8e-4 -0.002,2.6e-4 0.0116,2.6e-4 0.0131,0 0.0186,-1.4e-4 0.0122,-2.6e-4 z m -0.0481,-0.001 c -0.005,-1.9e-4 -0.0146,-1.9e-4 -0.0202,0 -0.005,1.9e-4 -10e-4,2.7e-4 0.0101,2.7e-4 0.0111,0 0.0156,-1.6e-4 0.0101,-2.7e-4 z m -0.0408,-0.001 c -0.005,-1.9e-4 -0.0124,-1.9e-4 -0.0171,0 -0.005,1.9e-4 -7.9e-4,2.7e-4 0.008,2.7e-4 0.009,0 0.0132,-1.6e-4 0.008,-2.7e-4 z m -0.0341,-10e-4 c -0.004,-1.9e-4 -0.0109,-1.9e-4 -0.015,0 -0.004,2e-4 -7.9e-4,2.7e-4 0.007,2.7e-4 0.008,0 0.0116,-1.6e-4 0.008,-2.7e-4 z m -0.0294,-0.001 c -0.003,-2.1e-4 -0.009,-2.1e-4 -0.0124,-1e-5 -0.004,2e-4 -7.9e-4,2.7e-4 0.006,2.7e-4 0.007,0 0.01,-1.7e-4 0.007,-2.7e-4 z m -0.0248,-0.001 c -0.002,-2.2e-4 -0.006,-2.2e-4 -0.008,0 -0.002,2.2e-4 -2.6e-4,5.3e-4 0.004,5.3e-4 0.004,0 0.006,-1.9e-4 0.004,-5.3e-4 z m -0.16332,-0.0164 c -2.6e-4,-2.6e-4 -0.001,-2.6e-4 -0.002,-8e-5 -7.9e-4,2.7e-4 -5.3e-4,5.3e-4 5.3e-4,5.3e-4 0.001,5e-5 0.002,-2e-4 0.001,-5.3e-4 z m -0.008,-0.001 c -7.9e-4,-2.7e-4 -0.002,-2.7e-4 -0.003,0 -7.9e-4,2.6e-4 -1.3e-4,5.2e-4 0.001,5.2e-4 0.001,0 0.002,-2.3e-4 0.001,-5.2e-4 z m -0.009,-0.001 c -7.9e-4,-2.7e-4 -0.002,-2.7e-4 -0.003,0 -7.9e-4,2.6e-4 -1.3e-4,5.3e-4 0.001,5.3e-4 0.001,0 0.002,-2.4e-4 0.001,-5.3e-4 z m -0.008,-10e-4 c -7.9e-4,-2.7e-4 -0.002,-2.7e-4 -0.003,0 -7.9e-4,2.6e-4 -1.3e-4,5.3e-4 0.001,5.3e-4 10e-4,0 0.002,-2.4e-4 10e-4,-5.3e-4 z m -0.008,-0.001 c -7.9e-4,-2.6e-4 -0.002,-2.6e-4 -0.003,-4e-5 -0.001,2.6e-4 -5.3e-4,5.3e-4 10e-4,5.3e-4 0.002,2e-5 0.003,-1.9e-4 0.002,-5.3e-4 z m -0.009,-0.001 c -7.9e-4,-2.6e-4 -0.002,-2.6e-4 -0.003,-4e-5 -0.001,2.7e-4 -5.3e-4,5.3e-4 10e-4,5.3e-4 0.002,3e-5 0.003,-1.9e-4 0.002,-5.3e-4 z m -0.008,-0.001 c -10e-4,-2.6e-4 -0.003,-2.6e-4 -0.004,0 -0.001,2.7e-4 -1.8e-4,5.3e-4 0.002,5.3e-4 0.002,0 0.003,-2.1e-4 0.002,-5.3e-4 z m -0.01,-0.001 c -7.9e-4,-2.7e-4 -0.002,-2.7e-4 -0.003,-4e-5 -0.001,2.6e-4 -5.3e-4,5.2e-4 10e-4,5.2e-4 0.002,3e-5 0.003,-1.9e-4 0.002,-5.2e-4 z m -0.008,-0.001 c -10e-4,-2.6e-4 -0.003,-2.6e-4 -0.004,0 -0.0011,2.6e-4 -1.8e-4,5.3e-4 0.002,5.3e-4 0.002,0 0.003,-2.2e-4 0.002,-5.3e-4 z m -0.0083,-10e-4 c -0.0011,-2.6e-4 -0.0029,-2.7e-4 -0.0041,-2e-5 -0.0013,2.5e-4 -5.3e-4,5.3e-4 0.0019,5.3e-4 0.0024,1e-5 0.0033,-1.9e-4 0.0024,-5.3e-4 z m -0.0083,-0.001 c -0.0011,-2.6e-4 -0.0029,-2.6e-4 -0.0041,-2e-5 -0.0013,2.5e-4 -5.3e-4,5.3e-4 0.0019,5.3e-4 0.0024,1e-5 0.0033,-1.9e-4 0.0024,-5.3e-4 z m -0.01164,-0.001 c -0.0028,-5.3e-4 -0.0068,-8e-4 -0.0088,-8e-4 -0.0033,6e-5 -0.0032,1.4e-4 0.0011,8e-4 0.0026,2.6e-4 0.0065,7.9e-4 0.0088,7.9e-4 0.0039,2e-5 0.0039,-3e-5 -0.0011,-7.9e-4 z m -0.01421,-0.002 c -0.0011,-2.6e-4 -0.0029,-2.6e-4 -0.0041,-2e-5 -0.0013,2.4e-4 -5.29e-4,5.3e-4 0.0019,5.3e-4 0.0024,1e-5 0.0033,-1.9e-4 0.0024,-5.3e-4 z m -0.01164,-0.001 c -0.0028,-5.3e-4 -0.0068,-8e-4 -0.0088,-8e-4 -0.0033,6e-5 -0.0032,1.4e-4 0.0011,8e-4 0.0026,2.6e-4 0.0065,7.9e-4 0.0088,7.9e-4 0.0039,2e-5 0.0039,-3e-5 -0.0011,-7.9e-4 z"
       id="path44" /><path
       style="fill:#ababab;fill-opacity:1;stroke:none;stroke-width:9.37501e-05"
       d="m 100.89902,178.66794 c 0.002,-2.4e-4 0.004,-2.3e-4 0.005,1e-5 10e-4,2.5e-4 -1e-5,5.3e-4 -0.003,5.3e-4 -0.003,-10e-6 -0.004,-2.1e-4 -0.002,-5.3e-4 z"
       id="path45" /><path
       style="fill:#ababab;fill-opacity:1;stroke:none;stroke-width:0.000265165"
       d="m 103.75531,178.7013 v -0.0307 l 0.66285,-0.002 c 0.78772,-0.002 1.7867,-0.007 2.02875,-0.009 l 0.1732,-0.002 v 0.0333 0.0333 l -0.10305,0.002 c -0.0567,0.001 -0.70125,0.003 -1.43239,0.004 l -1.32936,0.002 z"
       id="path48" /><path
       style="fill:#ababab;fill-opacity:1;stroke:none;stroke-width:0.000265165"
       d="m 106.81012,178.69189 v -0.034 h 0.0226 c 0.0125,-1e-5 0.21077,-0.001 0.44068,-0.003 0.22992,-0.002 0.61732,-0.004 0.8609,-0.006 2.60299,-0.0178 4.8488,-0.0422 5.91668,-0.0644 0.35454,-0.007 0.54813,-0.0133 0.76429,-0.0234 0.0674,-0.003 0.12894,-0.006 0.13666,-0.006 h 0.014 v 0.0131 c 0,0.0117 -7.9e-4,0.0131 -0.007,0.0131 -0.004,0 -0.0901,0.003 -0.1922,0.007 -1.85127,0.0723 -3.86371,0.10999 -6.93544,0.12999 -0.24438,0.002 -0.57424,0.004 -0.73301,0.005 l -0.28867,0.002 z"
       id="path49" /><path
       style="fill:#ababab;fill-opacity:1;stroke:none;stroke-width:0.000265165"
       d="m 106.62011,178.69156 v -0.0336 h 0.095 0.095 v 0.0336 0.0336 h -0.095 -0.095 z"
       id="path50" /><path
       style="fill:#ababab;fill-opacity:1;stroke:none;stroke-width:0.000265165"
       d="m 114.96602,178.56911 c 0,-0.0127 2.6e-4,-0.0133 0.01,-0.0147 0.005,-7.9e-4 0.0569,-0.004 0.11473,-0.006 0.62494,-0.0276 1.62449,-0.0842 2.35177,-0.13317 0.47793,-0.0322 1.19082,-0.0861 1.44847,-0.10961 0.0257,-0.002 0.0517,-0.004 0.0577,-0.004 l 0.0109,-10e-6 v 0.0187 0.0187 l -0.0124,0.002 c -0.0259,0.004 -0.50814,0.042 -0.79294,0.0631 -0.91651,0.0678 -1.96292,0.12735 -2.95249,0.16809 -0.0965,0.004 -0.18888,0.008 -0.20536,0.009 l -0.03,0.002 z"
       id="path51" /><path
       style="fill:#ababab;fill-opacity:1;stroke:none;stroke-width:0.000265165"
       d="m 118.95919,178.31954 v -0.0198 l 0.0797,-0.007 c 0.12962,-0.011 0.51521,-0.0462 0.67893,-0.0619 1.6239,-0.15632 3.09432,-0.35637 4.54496,-0.61835 0.0752,-0.0136 0.13734,-0.0247 0.13813,-0.0247 7.9e-4,0 0.001,0.008 0.001,0.0186 v 0.0186 l -0.0183,0.003 c -0.01,0.002 -0.0814,0.0145 -0.15859,0.0284 -1.52136,0.27435 -3.11597,0.48733 -4.81461,0.64305 -0.1465,0.0134 -0.44294,0.0396 -0.44853,0.0396 -0.002,0 -0.003,-0.008 -0.003,-0.0198 z"
       id="path52" /><path
       style="fill:#ababab;fill-opacity:1;stroke:none;stroke-width:0.000530331"
       d="m 124.40376,177.60659 c 0,-0.0127 0.003,-0.0176 0.0131,-0.0199 0.007,-0.002 0.11182,-0.0215 0.2324,-0.0441 1.77172,-0.33138 3.76296,-0.81723 5.9693,-1.45646 0.89504,-0.25931 2.00015,-0.59455 2.7274,-0.82735 1.95014,-0.62428 3.75861,-1.30464 5.35745,-2.01552 0.12009,-0.0534 0.21941,-0.0971 0.2207,-0.0971 10e-4,0 0.002,0.007 0.002,0.0165 0,0.0195 0.0196,0.009 -0.22801,0.11931 -1.65593,0.73602 -3.3058,1.35924 -5.18969,1.96033 -3.49599,1.11546 -6.30207,1.85549 -8.83319,2.32954 -0.13827,0.0259 -0.25601,0.0481 -0.26164,0.0494 -0.008,0.002 -0.0102,-0.002 -0.0102,-0.0146 z"
       id="path54" /><path
       style="fill:#ababab;fill-opacity:1;stroke:none;stroke-width:0.000530331"
       d="m 138.92766,173.16114 c -5.3e-4,-0.0175 0.002,-0.0192 0.0491,-0.0404 0.5026,-0.22307 1.31576,-0.61719 1.91125,-0.92634 1.61073,-0.83623 3.15035,-1.79326 4.34493,-2.70082 0.0552,-0.0419 0.10321,-0.078 0.1067,-0.0802 0.004,-0.003 0.006,0.005 0.006,0.0222 v 0.0262 l -0.17978,0.13384 c -1.13761,0.84695 -2.40516,1.64093 -3.84555,2.40882 -0.34431,0.18356 -0.52342,0.27555 -0.95883,0.49249 -0.49349,0.24586 -0.77366,0.37998 -1.24586,0.59641 l -0.18764,0.086 z"
       id="path55" /><path
       style="fill:#ababab;fill-opacity:1;stroke:none;stroke-width:0.000530331"
       d="m 145.34603,169.43234 4e-5,-0.0251 0.0685,-0.0526 c 0.11922,-0.0915 0.43805,-0.34759 0.5716,-0.45905 1.09345,-0.91263 1.95568,-1.82614 2.57972,-2.73315 0.43881,-0.63778 0.75565,-1.2872 0.91275,-1.87088 0.0512,-0.1901 0.0897,-0.4292 0.12328,-0.7659 0.0202,-0.20252 0.0529,-0.6513 0.0529,-0.7262 v -0.0309 h 0.0206 c 0.0182,0 0.0203,0.002 0.0179,0.0131 -0.002,0.007 -0.004,0.0487 -0.006,0.0921 -0.009,0.19555 -0.0357,0.53971 -0.0589,0.74836 -0.0302,0.272 -0.0642,0.47366 -0.10787,0.64058 -0.37832,1.44505 -1.53421,3.00686 -3.37053,4.55416 -0.23182,0.19533 -0.7543,0.61328 -0.79366,0.63488 -0.009,0.005 -0.0102,0.003 -0.0102,-0.0194 z"
       id="path56" /><path
       style="fill:#ababab;fill-opacity:1;stroke:none;stroke-width:0.000530331"
       d="m 149.65789,162.75248 c 0.002,-0.009 0.007,-0.11605 0.0116,-0.23824 0.0591,-1.48534 0.0325,-3.27176 -0.0733,-4.91108 -0.0184,-0.28494 -0.0571,-0.79406 -0.0673,-0.88469 l -0.004,-0.0311 0.0195,0.002 0.0195,0.002 0.01,0.11986 c 0.0634,0.76605 0.11209,1.70213 0.13909,2.67478 0.0148,0.53299 0.0189,0.9644 0.0159,1.68672 -0.003,0.73043 -0.006,0.8859 -0.0247,1.34197 -0.005,0.11587 -0.009,0.22046 -0.009,0.2324 0,0.0209 -7.9e-4,0.0217 -0.0203,0.0217 -0.0189,0 -0.0201,-0.001 -0.0176,-0.0161 z"
       id="path57" /><path
       style="fill:#ababab;fill-opacity:1;stroke:none;stroke-width:0.000530331"
       d="m 149.52964,156.68306 c -0.002,-0.003 -0.009,-0.064 -0.0151,-0.13593 -0.11244,-1.2308 -0.23987,-1.80124 -0.5333,-2.38731 -0.1481,-0.29579 -0.40423,-0.6977 -0.6764,-1.06137 -0.0565,-0.0755 -0.1049,-0.14067 -0.10748,-0.1447 -0.003,-0.005 0.002,-0.007 0.0207,-0.007 h 0.0254 l 0.0791,0.1067 c 0.4514,0.60905 0.83772,1.29868 0.96042,1.71449 0.0966,0.32727 0.18313,0.88756 0.25786,1.66918 0.0249,0.26048 0.0247,0.2514 0.006,0.2514 -0.008,0 -0.0157,-0.002 -0.0174,-0.005 z"
       id="path58" /><path
       style="fill:#ababab;fill-opacity:1;stroke:none;stroke-width:0.000530331"
       d="m 148.16395,152.9128 c -0.10721,-0.13732 -0.28286,-0.33753 -0.41134,-0.46887 -0.2798,-0.28601 -0.50875,-0.47759 -0.80758,-0.67575 -0.30412,-0.20166 -0.62751,-0.36281 -0.99684,-0.49674 -0.55864,-0.20257 -1.34044,-0.32912 -2.32983,-0.37711 -0.49988,-0.0242 -1.27814,-0.0242 -1.8592,1.1e-4 -1.32339,0.0554 -2.71579,0.17489 -3.81568,0.32755 -0.18074,0.0251 -0.54941,0.0805 -0.60575,0.091 -0.0181,0.003 -0.019,0.003 -0.019,-0.0145 0,-0.021 -0.005,-0.0193 0.0994,-0.0356 1.12811,-0.17704 2.36516,-0.2992 3.78855,-0.37412 0.98837,-0.052 1.83644,-0.0609 2.50816,-0.0264 1.78844,0.092 2.89887,0.47462 3.82654,1.31841 0.21592,0.19639 0.52714,0.53499 0.68362,0.74374 l 0.0164,0.0219 h -0.0256 c -0.0242,0 -0.027,-0.002 -0.0519,-0.0336 z"
       id="path59" /><path
       style="fill:#ababab;fill-opacity:1;stroke:none;stroke-width:0.0001875"
       d="m 133.03481,152.60831 3e-5,-0.0243 0.0532,-0.0278 c 1.08014,-0.5651 2.43926,-0.98029 4.13491,-1.26316 0.10717,-0.0179 0.12465,-0.0205 0.10924,-0.0161 -0.0121,0.003 -0.0145,0.007 -0.0145,0.0213 0,0.007 0.001,0.0138 0.002,0.0151 0.001,10e-4 0.002,0.003 0.002,0.003 -5.3e-4,5.3e-4 -0.0335,0.006 -0.0733,0.0127 -0.80124,0.13195 -1.55513,0.3015 -2.21691,0.49858 -0.72022,0.21448 -1.38258,0.47884 -1.93477,0.77222 -0.0267,0.0142 -0.0516,0.0274 -0.0553,0.0292 l -0.007,0.003 z"
       id="path62" /><path
       style="fill:#ababab;fill-opacity:1;stroke:none;stroke-width:0.000530331"
       d="m 77.991159,173.3295 c -1.12422,-0.50525 -2.140656,-0.99465 -2.879413,-1.38641 -1.867106,-0.9901 -3.568633,-2.13752 -4.952002,-3.33936 -0.317654,-0.27597 -0.571124,-0.51254 -0.880229,-0.82154 -0.486026,-0.48585 -0.819655,-0.86726 -1.180272,-1.34932 l -0.0164,-0.0219 0.02553,2.7e-4 0.02553,2.6e-4 0.07169,0.0958 c 0.488953,0.6534 1.237412,1.42685 2.076908,2.14625 0.381823,0.3272 0.739235,0.61209 1.192689,0.95067 0.352618,0.26329 0.678775,0.4933 1.075761,0.75862 1.561328,1.04351 2.731402,1.68458 4.858459,2.66192 0.291992,0.13417 0.661871,0.30127 0.685504,0.30969 0.01326,0.005 0.01609,0.009 0.01609,0.0256 0,0.0109 -0.0019,0.0198 -0.0044,0.0196 -0.0024,-1.6e-4 -0.05437,-0.0228 -0.115466,-0.0502 z"
       id="path63" /><path
       style="fill:#ababab;fill-opacity:1;stroke:none;stroke-width:0.000530331"
       d="m 85.834266,176.11549 c -0.03376,-0.01 -0.152156,-0.0424 -0.263093,-0.073 -2.553312,-0.70579 -4.903677,-1.53935 -7.294978,-2.58716 l -0.165148,-0.0724 -1.8e-5,-0.019 c -8e-6,-0.0105 0.0011,-0.019 0.0026,-0.019 0.0016,0 0.09816,0.0418 0.214861,0.0928 2.344597,1.02536 4.830098,1.90117 7.387306,2.60304 l 0.200224,0.0549 2.1e-5,0.019 c 2.6e-5,0.0234 -0.0013,0.0235 -0.08183,7.9e-4 z"
       id="path64" /><path
       style="fill:#ababab;fill-opacity:1;stroke:none;stroke-width:0.0001875"
       d="m 94.408706,177.89898 c -0.0091,-0.002 -0.100717,-0.0163 -0.203605,-0.0327 -1.966481,-0.31401 -3.73139,-0.64707 -5.431192,-1.02493 l -0.113689,-0.0253 -5.29e-4,-0.0191 c -5.29e-4,-0.0132 1.29e-4,-0.0191 0.0019,-0.0191 0.0013,0 0.02667,0.006 0.0564,0.0123 1.279199,0.29076 3.07817,0.63419 4.97573,0.94989 0.273092,0.0454 0.697659,0.11484 0.721918,0.11801 l 0.01085,0.001 v 0.0214 c 0,0.0118 -2.33e-4,0.0213 -5.29e-4,0.0212 -2.65e-4,-1.3e-4 -0.008,-0.002 -0.01707,-0.003 z"
       id="path65" /><path
       style="fill:#ababab;fill-opacity:1;stroke:none;stroke-width:0.0001875"
       d="m 97.762506,178.38475 c -0.054,-0.007 -0.167482,-0.0226 -0.25218,-0.034 -1.027173,-0.13821 -2.043258,-0.28582 -2.979663,-0.43285 -0.05457,-0.009 -0.100357,-0.0156 -0.101749,-0.0156 -0.0019,-1e-5 -0.0021,-0.005 -0.0013,-0.0202 7.93e-4,-0.0111 0.0016,-0.0205 0.0019,-0.0208 2.64e-4,-2.7e-4 0.06507,0.01 0.143888,0.0222 0.900774,0.14387 1.841402,0.28406 2.718861,0.4052 0.16837,0.0233 0.458779,0.0627 0.533299,0.0725 0.0182,0.002 0.0361,0.005 0.03979,0.006 l 0.0067,0.001 v 0.0153 0.0153 l -0.0057,-1.9e-4 c -0.0031,-1e-4 -0.04987,-0.006 -0.103871,-0.0135 z"
       id="path66" /><path
       style="fill:#ababab;fill-opacity:1;stroke:none;stroke-width:0.0001875"
       d="m 97.928905,178.40688 -0.05581,-0.008 -5.3e-4,-0.0163 -5.29e-4,-0.0162 0.0058,0.001 c 0.0032,5.3e-4 0.02926,0.004 0.05797,0.008 l 0.05219,0.007 v 0.0162 c 0,0.009 -7.94e-4,0.0161 -0.0016,0.0159 -7.94e-4,-1.5e-4 -0.02667,-0.004 -0.05736,-0.008 z"
       id="path67" /><path
       style="fill:#ababab;fill-opacity:1;stroke:none;stroke-width:0.0001875"
       d="m 88.640583,176.81174 c -0.0062,-0.002 -0.07276,-0.0168 -0.147794,-0.0338 -0.811395,-0.18375 -1.641988,-0.38857 -2.42466,-0.59788 -0.179094,-0.0479 -0.175157,-0.0468 -0.1651,-0.047 0.0047,-1e-4 0.0095,-0.001 0.01077,-0.003 0.0013,-0.002 0.0024,-0.0101 0.0028,-0.0192 l 5.3e-4,-0.0165 0.05581,0.0151 c 0.853233,0.23122 1.808816,0.469 2.632913,0.65516 l 0.05323,0.012 v 0.0192 c 0,0.0217 0.0011,0.0208 -0.0186,0.0159 z"
       id="path68" /><path
       style="fill:#ababab;fill-opacity:1;stroke:none;stroke-width:9.37501e-05"
       d="m 85.566868,176.04082 c -0.122457,-0.0341 -0.218022,-0.0608 -0.288354,-0.0807 -0.836125,-0.23582 -1.64534,-0.48405 -2.439643,-0.74837 l -0.0739,-0.0246 -2.65e-4,-0.0219 -2.65e-4,-0.0219 0.04782,0.016 c 0.492136,0.16436 1.028298,0.33459 1.545405,0.49068 0.394864,0.11918 0.849228,0.25062 1.224214,0.35412 0.03325,0.009 0.06162,0.017 0.06305,0.0175 l 0.0026,8e-4 2.65e-4,0.0203 c 1.53e-4,0.0112 -8e-5,0.0203 -5.29e-4,0.0202 -5.29e-4,-5e-5 -0.03661,-0.0101 -0.08038,-0.0223 z"
       id="path69" /><path
       style="fill:#ababab;fill-opacity:1;stroke:none;stroke-width:0.000132582"
       d="m 86.112706,176.19119 c -0.139727,-0.0372 -0.206722,-0.0555 -0.208209,-0.0569 -7.93e-4,-7.9e-4 2.65e-4,-0.001 0.003,-0.001 0.0048,0 0.0079,-0.002 0.0079,-0.006 0,-0.002 -7.94e-4,-10e-4 -0.0024,0.001 -0.0031,0.004 -0.01032,0.004 -0.02988,-5.2e-4 -0.01982,-0.005 -0.376049,-0.10354 -0.556879,-0.15435 -0.569637,-0.16006 -1.137208,-0.32914 -1.690375,-0.50353 -0.484928,-0.15289 -0.932603,-0.30129 -1.479537,-0.49048 l -0.03398,-0.0118 v -0.0217 -0.0217 l 0.0296,0.0103 c 0.673677,0.2343 1.382731,0.46529 2.071494,0.67486 0.526939,0.16033 1.004205,0.29807 1.58514,0.45747 l 0.105969,0.0291 7.93e-4,0.0144 c 7.94e-4,0.0122 7.94e-4,0.013 0.0011,0.005 1.64e-4,-0.005 7.93e-4,-0.0118 0.0011,-0.0147 l 7.94e-4,-0.005 0.0638,0.0172 c 0.03509,0.01 0.09834,0.0265 0.140539,0.0378 0.04221,0.0113 0.07692,0.0207 0.07714,0.0209 2.22e-4,2.3e-4 2.22e-4,0.01 0,0.0216 l -5.3e-4,0.0212 z"
       id="path71" /><path
       style="fill:#ababab;fill-opacity:1;stroke:none;stroke-width:0.000132582"
       d="m 86.101744,176.18839 c -0.195821,-0.0524 -0.206446,-0.0554 -0.195323,-0.0554 0.0047,0 0.009,-0.003 0.009,-0.006 0,-0.002 -5.29e-4,-0.002 -0.0024,0.001 -0.0021,0.003 -0.0031,0.003 -0.01206,0.003 -0.01275,-0.001 0.01707,0.007 -0.348745,-0.0945 -1.166487,-0.32367 -2.230448,-0.65387 -3.306209,-1.02609 -0.05627,-0.0195 -0.107082,-0.037 -0.112911,-0.039 l -0.01061,-0.004 v -0.0217 -0.0217 l 0.03179,0.011 c 0.939527,0.32591 1.828257,0.60881 2.792812,0.88901 0.233362,0.0678 0.584504,0.16658 0.877707,0.24695 l 0.08989,0.0246 7.93e-4,0.0123 c 7.94e-4,0.0103 7.94e-4,0.011 0.0011,0.004 1.5e-4,-0.005 5.29e-4,-0.0102 0.0011,-0.0125 l 7.94e-4,-0.004 0.01558,0.004 c 0.01302,0.004 0.164187,0.0443 0.243956,0.0657 l 0.02228,0.006 v 0.0217 c 0,0.0119 -1.64e-4,0.0216 -2.65e-4,0.0216 -2.01e-4,-6e-5 -0.04443,-0.0119 -0.09829,-0.0263 z"
       id="path72" /><path
       style="fill:#ababab;fill-opacity:1;stroke:none;stroke-width:0.000132582"
       d="m 86.109052,176.19054 c -0.203443,-0.0547 -0.213585,-0.0576 -0.202631,-0.0576 0.0042,0 0.009,-0.002 0.009,-0.005 0,-7.9e-4 -0.0013,-5.3e-4 -0.0029,0.001 -0.0037,0.003 -0.01516,0.002 -0.03583,-0.003 -0.0281,-0.007 -0.438275,-0.12122 -0.556075,-0.15436 -1.073383,-0.30206 -2.098792,-0.62302 -3.102385,-0.97107 -0.041,-0.0142 -0.07931,-0.0275 -0.08514,-0.0295 l -0.01061,-0.004 v -0.0217 -0.0217 l 0.03545,0.0122 c 0.0195,0.007 0.08148,0.0281 0.137758,0.0476 0.477427,0.16479 1.012724,0.34065 1.516441,0.49821 0.660902,0.20672 1.279181,0.38766 2.007549,0.5875 l 0.09501,0.0261 7.94e-4,0.0101 7.94e-4,0.0101 2.64e-4,-0.008 c 5.29e-4,-0.0141 -0.0024,-0.014 0.04181,-0.002 0.05655,0.0154 0.240409,0.0648 0.241218,0.0648 2.65e-4,0 7.94e-4,0.01 7.94e-4,0.0219 0,0.0121 -5.29e-4,0.0219 -0.0011,0.0218 -5.3e-4,-9e-5 -0.04122,-0.011 -0.09026,-0.0241 z"
       id="path73" /><path
       style="fill:#ababab;fill-opacity:1;stroke:none;stroke-width:0.000132582"
       d="m 86.117093,176.19276 c -0.208042,-0.0559 -0.221666,-0.0598 -0.210672,-0.0598 0.0042,0 0.009,-0.002 0.009,-0.005 0,-7.9e-4 -0.0011,-5.3e-4 -0.0027,7.9e-4 -0.004,0.004 -0.01381,0.003 -0.0334,-0.002 -0.0095,-0.002 -0.06002,-0.0163 -0.112278,-0.0308 -0.05225,-0.0145 -0.14006,-0.0388 -0.195128,-0.0541 -1.223454,-0.33934 -2.29889,-0.67423 -3.443234,-1.07221 l -0.0062,-0.002 v -0.0219 c 0,-0.0203 1.9e-4,-0.0219 0.0026,-0.0209 0.0051,0.002 0.15236,0.0529 0.250303,0.0865 0.644719,0.22107 1.318395,0.43808 1.976856,0.6368 0.469246,0.14162 0.919543,0.27098 1.46236,0.42012 l 0.100124,0.0275 7.93e-4,0.009 c 7.94e-4,0.008 7.94e-4,0.008 0.0013,0.002 1.93e-4,-0.004 7.94e-4,-0.008 0.0013,-0.009 0.0011,-0.002 0.05845,0.0128 0.268108,0.0696 l 0.01426,0.004 v 0.0218 c 0,0.012 -5.29e-4,0.0217 -0.0011,0.0216 -5.29e-4,-7e-5 -0.0376,-0.01 -0.08222,-0.0219 z"
       id="path74" /><path
       style="fill:#ababab;fill-opacity:1;stroke:none;stroke-width:0.000132582"
       d="m 84.002114,175.54029 c -0.0032,-0.001 -0.004,-0.002 -0.0021,-0.002 0.0016,0 0.0052,8e-4 0.008,0.002 0.0032,0.001 0.004,0.002 0.0021,0.002 -0.0016,0 -0.0052,-8e-4 -0.008,-0.002 z"
       id="path75" /></g></svg>
