<svg version="1.1" id="Layer_1" xmlns="http://www.w3.org/2000/svg" xmlns:xlink="http://www.w3.org/1999/xlink" x="0px" y="0px"
	 width="100%" viewBox="0 0 1208 241" enable-background="new 0 0 1208 241" xml:space="preserve">
<path fill="#FFFFFF" opacity="1.000000" stroke="none" 
	d="
M1209.000000,47.000000 
	C1209.000000,111.937950 1209.000000,176.875900 1209.000000,242.000000 
	C1125.641846,242.000000 1042.283569,242.000000 958.644592,241.647781 
	C958.684753,241.213043 959.001343,241.084824 959.327026,241.054611 
	C972.373474,239.844421 981.447083,230.607086 982.640015,217.310455 
	C983.782776,204.574219 975.944519,193.043533 964.095337,190.029648 
	C951.099915,186.724213 938.834961,192.261139 933.681396,203.759735 
	C928.242859,215.894363 931.770935,230.200958 942.407043,236.920319 
	C946.171814,239.298721 950.777954,240.345383 955.000000,242.000000 
	C637.123352,242.000000 319.246674,242.000000 1.000000,242.000000 
	C1.000000,194.642395 1.000000,147.283844 1.286868,99.721939 
	C1.751698,100.498245 1.912576,101.481346 2.110150,102.457024 
	C6.005559,121.693726 15.874208,135.876740 35.648209,141.296280 
	C51.073372,145.523911 66.656693,145.393661 82.001320,141.056854 
	C100.599670,135.800446 112.209305,121.231506 112.890602,103.217171 
	C113.629738,83.673592 104.474388,69.923332 85.207344,62.851059 
	C76.497292,59.653896 67.333679,57.713863 58.465755,54.918251 
	C51.831280,52.826729 45.007130,50.926613 38.871460,47.767960 
	C31.368010,43.905163 30.675512,34.743786 37.198811,30.049475 
	C46.292816,23.505228 56.675583,23.771688 66.920891,26.255972 
	C74.866760,28.182686 78.662636,34.372730 80.476044,42.033871 
	C80.733376,43.121044 82.268112,44.726814 83.184708,44.708988 
	C91.625259,44.544876 100.059891,44.075874 108.943634,43.675449 
	C108.752502,41.664906 108.706108,40.037106 108.430359,38.449131 
	C104.961510,18.473114 92.795433,6.510773 72.446709,3.074878 
	C67.975174,2.319858 63.482784,1.688373 59.000000,1.000000 
	C413.024902,1.000000 767.049805,1.000000 1121.554443,1.269799 
	C1122.055176,1.718607 1122.076172,1.897616 1122.055664,2.516826 
	C1122.014404,4.866840 1122.014404,6.776655 1122.014404,9.147757 
	C1126.727539,9.147757 1130.660156,9.147757 1135.306030,9.147757 
	C1135.306030,21.967762 1135.306030,34.332878 1135.306030,46.557228 
	C1138.943481,46.557228 1141.821533,46.557228 1145.210449,46.557228 
	C1145.210449,33.868217 1145.210449,21.626040 1145.210449,8.917759 
	C1149.653931,8.917759 1153.584839,8.917759 1157.902954,8.917759 
	C1157.902954,6.322724 1157.902954,4.199693 1157.934326,1.808139 
	C1157.977051,1.359745 1157.988525,1.179873 1158.000000,1.000000 
	C1160.041626,1.000000 1162.083374,1.000000 1164.577759,1.468460 
	C1165.030518,16.835005 1165.030518,31.733089 1165.030518,46.633652 
	C1168.357788,46.633652 1170.920044,46.633652 1173.973022,46.633652 
	C1173.973022,36.158283 1173.973022,26.042408 1173.973022,15.926533 
	C1176.838135,24.006355 1179.316284,32.072433 1180.818604,40.316376 
	C1181.822021,45.822418 1184.166748,48.057774 1189.607910,46.988899 
	C1190.243408,46.864090 1190.881104,46.751747 1191.706787,46.598576 
	C1194.515015,35.606533 1197.308105,24.674000 1200.101074,13.741465 
	C1200.461060,13.797368 1200.820923,13.853272 1201.180908,13.909176 
	C1201.180908,24.790413 1201.180908,35.671650 1201.180908,47.000000 
	C1204.077637,47.000000 1206.538818,47.000000 1209.000000,47.000000 
M594.205872,19.508265 
	C594.205811,58.143852 594.204041,96.779434 594.207397,135.415024 
	C594.208008,141.903137 594.218323,141.907532 600.884888,141.908920 
	C615.040161,141.911896 629.200989,142.154358 643.348999,141.834595 
	C655.277039,141.565033 667.308777,141.483154 679.085388,139.828964 
	C703.236267,136.436707 715.732727,108.298660 706.788696,87.662239 
	C702.462891,77.681335 694.299438,72.252052 684.231384,68.532257 
	C685.160706,67.931648 685.700317,67.566795 686.255127,67.226707 
	C697.536316,60.311108 703.534241,50.228092 702.845520,37.013947 
	C702.179443,24.234005 695.354370,15.011642 684.060974,9.103817 
	C675.210388,4.473850 665.481262,4.362976 655.904053,4.175238 
	C640.089478,3.865230 624.264526,4.090367 608.443909,4.090189 
	C594.203735,4.090028 594.203735,4.090155 594.205872,19.508265 
M197.763794,101.855873 
	C200.944778,113.905602 204.197998,125.937057 207.254288,138.018341 
	C207.987625,140.917175 209.247482,142.079712 212.354370,141.930664 
	C217.837997,141.667603 223.361481,141.584671 228.833557,141.948532 
	C232.781815,142.211090 234.166443,140.592316 235.284195,137.024490 
	C242.735840,113.239258 250.447327,89.535454 258.064880,65.802132 
	C260.540283,58.089760 262.987122,50.368237 265.651276,42.010254 
	C257.126892,42.010254 249.339920,41.891609 241.566299,42.159943 
	C240.591064,42.193607 239.216476,44.125336 238.822037,45.419884 
	C235.140976,57.501316 231.636856,69.636620 228.075058,81.754433 
	C225.717239,89.776100 223.348938,97.794670 220.590530,107.154099 
	C215.144501,85.676476 210.026718,65.724739 205.084259,45.729668 
	C204.413193,43.014797 203.467712,41.813278 200.488739,41.927399 
	C194.501602,42.156761 188.490524,42.191113 182.507187,41.916531 
	C179.300690,41.769379 178.290115,43.017448 177.584244,45.949944 
	C175.251984,55.639156 172.582260,65.247261 170.031799,74.883789 
	C167.316711,85.142395 164.589951,95.397911 161.546280,106.868286 
	C160.726608,104.296387 160.293365,103.051476 159.932022,101.786034 
	C154.597595,83.104828 149.313080,64.409088 143.865479,45.760986 
	C143.449890,44.338394 141.938522,42.213814 140.864471,42.169701 
	C133.262741,41.857506 125.642204,42.003670 117.882256,42.003670 
	C117.950272,43.155235 117.855667,43.850376 118.046501,44.455498 
	C127.990860,75.987747 137.922241,107.524330 148.059418,138.994614 
	C148.470978,140.272324 150.806366,141.641113 152.316376,141.727539 
	C157.960724,142.050507 163.652420,141.583771 169.291336,141.951019 
	C173.200760,142.205627 174.823334,140.835220 175.754593,137.094559 
	C179.687683,121.296196 183.885696,105.563583 188.022125,89.816185 
	C188.935760,86.338020 189.993240,82.897644 191.355759,78.144714 
	C193.639618,86.715858 195.554810,93.903427 197.763794,101.855873 
M1098.856079,48.500004 
	C1098.856079,33.890038 1098.856079,19.280071 1098.856079,4.458170 
	C1089.693481,4.458170 1081.155640,4.458170 1072.143799,4.458170 
	C1072.143799,12.786125 1072.143921,20.750191 1072.143921,28.714256 
	C1072.143921,36.587460 1072.143799,44.460659 1072.143799,53.226532 
	C1070.664307,51.980862 1070.030640,51.496414 1069.452026,50.953072 
	C1051.352295,33.954582 1024.122070,36.926857 1010.115295,57.368713 
	C1004.476624,65.597900 1002.499268,74.865730 1001.756409,84.588089 
	C1000.323669,103.339149 1003.132446,120.582420 1017.702148,134.291519 
	C1029.321777,145.224899 1048.099854,147.544067 1061.456421,138.849701 
	C1065.888550,135.964661 1069.779297,132.247894 1074.428711,128.499191 
	C1074.428711,133.117264 1074.428711,137.357361 1074.428711,141.611938 
	C1082.728882,141.611938 1090.489746,141.611938 1098.855957,141.611938 
	C1098.855957,110.709908 1098.855957,80.104958 1098.856079,48.500004 
M573.935608,83.511543 
	C573.890503,80.014023 573.992798,76.507301 573.775391,73.020531 
	C572.677551,55.420395 565.632019,45.338593 551.250000,41.481354 
	C537.416748,37.771290 524.874756,40.427280 514.120239,50.226463 
	C512.733643,51.489876 511.353027,52.759735 508.947144,54.962959 
	C508.947144,37.170971 508.947144,20.817343 508.947144,4.398563 
	C500.066071,4.398563 491.805542,4.398563 483.430573,4.398563 
	C483.430573,50.311317 483.430573,95.971336 483.430573,141.553574 
	C492.133331,141.553574 500.399811,141.553574 509.152161,141.553574 
	C509.152161,139.470673 509.152191,137.674408 509.152191,135.878143 
	C509.152252,121.217560 508.889862,106.550110 509.273529,91.899574 
	C509.441559,85.482445 510.207794,78.890587 511.989197,72.751457 
	C514.551575,63.920742 523.952637,59.018330 533.456482,60.427826 
	C543.043457,61.849651 546.877991,66.190170 547.120972,77.351227 
	C547.548584,96.994781 547.554199,116.647446 547.755554,136.296097 
	C547.773438,138.045197 547.929993,139.792892 548.024597,141.588226 
	C556.860596,141.588226 565.118225,141.588226 573.257996,141.588226 
	C573.529846,141.044540 573.796326,140.759888 573.797241,140.474380 
	C573.857056,121.818817 573.895386,103.163170 573.935608,83.511543 
M803.600403,134.103912 
	C824.944702,118.608414 829.764893,87.741821 817.413147,65.534088 
	C806.620483,46.129509 788.840698,38.227360 767.123840,40.229355 
	C747.025391,42.082150 732.423584,52.229706 724.839844,71.544296 
	C715.921997,94.256821 722.416077,129.833633 751.403137,140.064713 
	C769.478210,146.444382 786.864929,146.154266 803.600403,134.103912 
M917.476929,60.259975 
	C915.083374,49.313545 906.843140,44.654270 897.156311,42.103184 
	C885.773987,39.105587 874.136597,39.206902 862.587524,41.202080 
	C847.778320,43.760464 836.446106,55.036213 834.733459,68.673416 
	C842.333374,70.001595 849.940918,71.331100 857.452271,72.643814 
	C863.515625,58.871017 873.412048,58.450493 885.415344,61.381420 
	C890.688416,62.668999 893.121277,67.337654 893.123535,73.868675 
	C893.125366,79.315025 888.734802,78.482544 885.729614,79.268127 
	C874.050781,82.321114 862.141174,84.590607 850.631287,88.162727 
	C838.869873,91.812889 832.128174,100.631218 831.475159,112.899010 
	C830.907898,123.554588 834.827087,132.631180 844.260498,138.814346 
	C856.947021,147.129807 878.114441,145.467850 890.482483,134.998672 
	C891.916077,133.785141 893.564575,132.825531 895.353271,131.581436 
	C896.106750,134.177216 896.408020,136.207596 897.288330,137.944519 
	C898.038147,139.423889 899.407898,141.632446 900.583313,141.683655 
	C908.288513,142.019333 916.015381,141.856567 924.640137,141.856567 
	C920.009155,131.674118 918.832520,121.954781 918.815186,111.890266 
	C918.785950,94.939842 918.154480,77.990463 917.476929,60.259975 
M398.864990,46.301533 
	C389.313507,52.047501 382.988770,60.344021 379.637543,70.906342 
	C376.094360,82.073669 375.925415,93.477257 377.644989,104.960121 
	C378.899872,113.340088 382.079163,120.892937 387.265381,127.661446 
	C401.171295,145.809937 427.265961,147.387268 445.186646,140.497009 
	C459.741547,134.900818 466.672150,123.112488 470.314514,108.088348 
	C461.492676,106.604156 453.084747,105.189598 444.622589,103.765923 
	C444.149963,105.387589 443.885040,106.332031 443.599670,107.270233 
	C440.277313,118.192383 434.949860,122.700829 425.481140,122.608192 
	C415.508606,122.510628 408.482330,117.094368 405.691925,106.858124 
	C402.929077,96.722939 402.912872,86.375511 405.276855,76.217392 
	C407.512939,66.608612 414.810150,61.113632 424.281921,60.870682 
	C434.665466,60.604343 439.383179,64.189079 443.040405,75.097458 
	C443.131897,75.370377 443.438873,75.571053 443.926178,76.124245 
	C452.011902,74.679222 460.314087,73.195518 468.935303,71.654793 
	C465.752350,60.616928 460.636963,51.129147 450.378815,45.924763 
	C433.575928,37.399986 416.468353,37.713966 398.864990,46.301533 
M351.860626,74.516922 
	C351.860626,70.767296 351.860626,67.017677 351.860626,62.851608 
	C358.220154,62.851608 363.816284,62.851608 369.486755,62.851608 
	C369.486755,55.693817 369.486755,48.980114 369.486755,41.855194 
	C363.513153,41.855194 357.908112,41.855194 351.701355,41.855194 
	C351.701355,30.124033 351.701355,18.799232 351.701355,6.801549 
	C343.063812,11.870958 335.124573,16.388660 327.383820,21.224058 
	C326.200348,21.963322 325.412231,24.145958 325.338470,25.703524 
	C325.089081,30.968983 325.243408,36.253563 325.243408,42.151154 
	C320.969543,42.151154 317.247742,42.151154 313.541687,42.151154 
	C313.541687,49.380215 313.541687,55.970856 313.541687,63.158722 
	C317.559875,63.158722 321.288422,63.158722 325.242981,63.158722 
	C325.242981,65.920563 325.216827,68.080132 325.247101,70.238907 
	C325.489838,87.557755 325.528534,104.883362 326.086090,122.192200 
	C326.354980,130.539185 329.084595,138.118607 337.751282,141.474579 
	C349.181946,145.900864 360.507782,144.608154 371.985779,140.192108 
	C371.223938,133.356232 370.493500,126.802452 369.723907,119.896965 
	C367.564758,120.526115 365.842621,121.068512 364.098877,121.529152 
	C355.697968,123.748367 352.019836,121.056259 351.958893,112.498230 
	C351.871063,100.169456 351.888184,87.839935 351.860626,74.516922 
M987.515747,64.600655 
	C989.780579,65.430878 992.045349,66.261101 994.651306,67.216370 
	C997.101074,60.404312 999.519470,54.061028 1001.568787,47.600636 
	C1001.904541,46.542255 1000.987488,44.242294 1000.018860,43.745262 
	C990.583740,38.904121 977.750061,37.261200 969.083740,47.448467 
	C967.140564,49.732632 965.266479,52.075520 962.470825,55.472565 
	C962.470825,50.136627 962.470825,46.221958 962.470825,42.446045 
	C954.067627,42.446045 946.182800,42.446045 938.442139,42.446045 
	C938.442139,75.767632 938.442139,108.638908 938.442139,141.559418 
	C947.077271,141.559418 955.308838,141.559418 964.992188,141.559418 
	C964.992188,124.304451 964.885681,107.384346 965.069092,90.467369 
	C965.113525,86.373093 965.788818,82.211578 966.738525,78.215118 
	C969.555542,66.361290 974.730164,62.868896 987.515747,64.600655 
M303.763062,118.499985 
	C303.763062,93.087280 303.763062,67.674568 303.763062,42.420029 
	C294.455200,42.420029 285.900452,42.420029 277.519043,42.420029 
	C277.519043,75.738937 277.519043,108.625374 277.519043,141.595306 
	C286.328033,141.595306 294.749756,141.595306 303.762848,141.595306 
	C303.762848,134.057739 303.762848,126.778847 303.763062,118.499985 
M852.701843,191.549026 
	C855.507446,185.273041 860.455627,182.184357 867.221741,182.032928 
	C873.949585,181.882324 878.552185,185.005814 881.191284,191.255005 
	C881.544800,192.092087 883.281677,192.992630 884.196106,192.831512 
	C887.882690,192.181885 891.497925,191.127472 896.822083,189.804459 
	C893.306824,184.781601 891.162903,179.855286 887.477539,176.770157 
	C870.259949,162.356461 843.027954,171.349838 837.779114,193.171295 
	C834.010864,208.837143 834.972107,223.765259 848.612793,235.043854 
	C861.672791,245.842316 890.971130,243.821304 895.425964,218.666611 
	C891.252380,217.392075 887.036682,216.104691 882.712708,214.784241 
	C882.171204,216.103775 881.775879,216.997772 881.433655,217.911652 
	C878.347717,226.152390 873.679321,229.483948 865.799255,229.054825 
	C858.700012,228.668213 853.570435,224.312988 851.726624,216.433380 
	C849.841980,208.379272 849.859680,200.262955 852.701843,191.549026 
M1084.994751,176.648346 
	C1084.994751,182.683380 1084.994751,188.718430 1084.994751,195.480606 
	C1083.629639,194.550598 1083.091431,194.223969 1082.596802,193.840927 
	C1071.279785,185.076981 1056.792236,188.959045 1051.655151,202.347687 
	C1048.375122,210.896164 1048.535400,219.632523 1051.923950,228.144440 
	C1055.531982,237.207840 1063.596558,242.476227 1072.724243,240.769135 
	C1077.301147,239.913162 1081.472900,236.890915 1085.858032,234.834274 
	C1085.949585,236.134460 1086.072388,237.878983 1086.199219,239.680237 
	C1090.230835,239.680237 1093.955078,239.680237 1097.574219,239.680237 
	C1097.574219,216.686676 1097.574219,194.021194 1097.574219,171.466003 
	C1093.219604,171.466003 1089.300293,171.466003 1085.205322,171.466003 
	C1085.124634,173.082840 1085.059692,174.386169 1084.994751,176.648346 
M1032.453125,190.125259 
	C1030.191772,190.125259 1027.930420,190.125259 1025.225952,190.125259 
	C1025.225952,198.107559 1025.297241,205.398605 1025.195923,212.687271 
	C1025.145264,216.334457 1025.177856,220.057846 1024.460449,223.602646 
	C1023.457458,228.559006 1018.598511,231.561554 1013.538330,230.993561 
	C1009.104553,230.495850 1007.000854,227.892670 1006.769409,222.129456 
	C1006.549255,216.645706 1006.547180,211.152283 1006.503723,205.662689 
	C1006.463379,200.572098 1006.495056,195.480972 1006.495056,190.460052 
	C1001.629395,190.460052 997.546936,190.460052 993.337036,190.460052 
	C993.337036,202.739273 992.820557,214.714417 993.499268,226.621445 
	C994.049194,236.269775 1000.690369,241.908859 1010.326538,240.893173 
	C1015.740906,240.322510 1020.899841,237.329193 1025.999878,235.490051 
	C1026.090454,236.266083 1026.293823,238.008240 1026.496948,239.747696 
	C1030.622070,239.747696 1034.378052,239.747696 1038.242920,239.747696 
	C1038.242920,223.120422 1038.242920,206.766495 1038.242920,190.125397 
	C1036.345337,190.125397 1034.859497,190.125397 1032.453125,190.125259 
M907.207458,234.339981 
	C907.207458,236.108627 907.207458,237.877274 907.207458,239.773773 
	C911.959351,239.773773 916.040161,239.773773 920.328735,239.773773 
	C920.328735,216.852783 920.328735,194.188660 920.328735,171.403870 
	C915.906433,171.403870 911.836304,171.403870 907.207703,171.403870 
	C907.207703,192.254761 907.207703,212.816574 907.207458,234.339981 
M303.781525,24.222904 
	C303.781525,17.643332 303.781525,11.063759 303.781525,4.514707 
	C294.507507,4.514707 285.979828,4.514707 277.406921,4.514707 
	C277.406921,12.642687 277.406921,20.371651 277.406921,28.641373 
	C285.611938,28.641373 293.544678,28.741854 301.466125,28.488434 
	C302.272491,28.462637 303.010773,26.309706 303.781525,24.222904 
z"/>
<path fill="#26AEE3" opacity="1.000000" stroke="none" 
	d="
M58.583336,1.000000 
	C63.482784,1.688373 67.975174,2.319858 72.446709,3.074878 
	C92.795433,6.510773 104.961510,18.473114 108.430359,38.449131 
	C108.706108,40.037106 108.752502,41.664906 108.943634,43.675449 
	C100.059891,44.075874 91.625259,44.544876 83.184708,44.708988 
	C82.268112,44.726814 80.733376,43.121044 80.476044,42.033871 
	C78.662636,34.372730 74.866760,28.182686 66.920891,26.255972 
	C56.675583,23.771688 46.292816,23.505228 37.198811,30.049475 
	C30.675512,34.743786 31.368010,43.905163 38.871460,47.767960 
	C45.007130,50.926613 51.831280,52.826729 58.465755,54.918251 
	C67.333679,57.713863 76.497292,59.653896 85.207344,62.851059 
	C104.474388,69.923332 113.629738,83.673592 112.890602,103.217171 
	C112.209305,121.231506 100.599670,135.800446 82.001320,141.056854 
	C66.656693,145.393661 51.073372,145.523911 35.648209,141.296280 
	C15.874208,135.876740 6.005559,121.693726 2.110150,102.457024 
	C1.912576,101.481346 1.751698,100.498245 1.286868,99.259300 
	C1.000000,98.555557 1.000000,98.111107 1.434851,97.385841 
	C10.593227,96.273041 19.316753,95.441063 27.774527,94.634438 
	C29.521931,99.254341 30.741182,103.401398 32.602036,107.237198 
	C40.480804,123.477768 64.477325,122.966202 75.400925,116.961578 
	C81.669891,113.515572 85.506317,108.229706 84.943336,100.754692 
	C84.384270,93.331718 79.133148,89.854187 72.771385,87.874825 
	C65.799072,85.705482 58.629551,84.159325 51.688107,81.904099 
	C43.033321,79.092216 34.149109,76.593689 26.035898,72.596138 
	C12.532624,65.942802 4.912985,51.040741 6.654045,37.233360 
	C8.807667,20.154192 19.514105,8.224756 36.707466,4.134250 
	C42.398102,2.780380 48.231743,2.027604 54.000000,1.000000 
	C55.388889,1.000000 56.777779,1.000000 58.583336,1.000000 
z"/>
<path fill="#FDFEFF" opacity="1.000000" stroke="none" 
	d="
M53.531342,1.000000 
	C48.231743,2.027604 42.398102,2.780380 36.707466,4.134250 
	C19.514105,8.224756 8.807667,20.154192 6.654045,37.233360 
	C4.912985,51.040741 12.532624,65.942802 26.035898,72.596138 
	C34.149109,76.593689 43.033321,79.092216 51.688107,81.904099 
	C58.629551,84.159325 65.799072,85.705482 72.771385,87.874825 
	C79.133148,89.854187 84.384270,93.331718 84.943336,100.754692 
	C85.506317,108.229706 81.669891,113.515572 75.400925,116.961578 
	C64.477325,122.966202 40.480804,123.477768 32.602036,107.237198 
	C30.741182,103.401398 29.521931,99.254341 27.774527,94.634438 
	C19.316753,95.441063 10.593227,96.273041 1.434851,97.052505 
	C1.000000,65.094231 1.000000,33.188461 1.000000,1.000000 
	C18.353205,1.000000 35.707943,1.000000 53.531342,1.000000 
z"/>
<path fill="#29AFE4" opacity="1.000000" stroke="none" 
	d="
M955.375000,242.000000 
	C950.777954,240.345383 946.171814,239.298721 942.407043,236.920319 
	C931.770935,230.200958 928.242859,215.894363 933.681396,203.759735 
	C938.834961,192.261139 951.099915,186.724213 964.095337,190.029648 
	C975.944519,193.043533 983.782776,204.574219 982.640015,217.310455 
	C981.447083,230.607086 972.373474,239.844421 959.327026,241.054611 
	C959.001343,241.084824 958.684753,241.213043 958.181946,241.647781 
	C957.250000,242.000000 956.500000,242.000000 955.375000,242.000000 
M945.188904,211.149948 
	C945.397644,214.600449 945.135132,218.162491 945.919556,221.476761 
	C947.287109,227.255264 951.538208,230.331558 957.007202,230.330322 
	C962.515320,230.329071 966.633301,227.237610 968.129333,221.510956 
	C968.788147,218.989014 968.998047,216.278122 968.960205,213.659531 
	C968.856018,206.434387 964.643372,200.855667 958.949646,200.028229 
	C952.393372,199.075439 947.875916,202.505875 945.188904,211.149948 
z"/>
<path fill="#ADADAD" opacity="1.000000" stroke="none" 
	d="
M1209.000000,46.531342 
	C1206.538818,47.000000 1204.077637,47.000000 1201.180908,47.000000 
	C1201.180908,35.671650 1201.180908,24.790413 1201.180908,13.909176 
	C1200.820923,13.853272 1200.461060,13.797368 1200.101074,13.741465 
	C1197.308105,24.674000 1194.515015,35.606533 1191.706787,46.598576 
	C1190.881104,46.751747 1190.243408,46.864090 1189.607910,46.988899 
	C1184.166748,48.057774 1181.822021,45.822418 1180.818604,40.316376 
	C1179.316284,32.072433 1176.838135,24.006355 1173.973022,15.926533 
	C1173.973022,26.042408 1173.973022,36.158283 1173.973022,46.633652 
	C1170.920044,46.633652 1168.357788,46.633652 1165.030518,46.633652 
	C1165.030518,31.733089 1165.030518,16.835005 1165.015259,1.468460 
	C1169.024536,1.000000 1173.049072,1.000000 1177.668945,1.339463 
	C1179.506958,5.409886 1180.889893,9.101138 1181.960571,12.880860 
	C1183.692017,18.992327 1185.218140,25.161972 1186.830933,31.307051 
	C1189.226440,25.496492 1190.699463,19.796619 1192.113403,14.082092 
	C1195.323730,1.106860 1195.311890,1.103928 1209.000000,2.000000 
	C1209.000000,16.687561 1209.000000,31.375122 1209.000000,46.531342 
z"/>
<path fill="#FCFEFF" opacity="1.000000" stroke="none" 
	d="
M1209.000000,1.500000 
	C1195.311890,1.103928 1195.323730,1.106860 1192.113403,14.082092 
	C1190.699463,19.796619 1189.226440,25.496492 1186.830933,31.307051 
	C1185.218140,25.161972 1183.692017,18.992327 1181.960571,12.880860 
	C1180.889893,9.101138 1179.506958,5.409886 1178.132080,1.339463 
	C1188.333374,1.000000 1198.666626,1.000000 1209.000000,1.500000 
z"/>
<path fill="#D5D5D5" opacity="1.000000" stroke="none" 
	d="
M1157.531372,1.000000 
	C1157.988525,1.179873 1157.977051,1.359745 1157.475342,1.777246 
	C1145.355591,2.035459 1133.726318,2.056042 1122.097046,2.076625 
	C1122.076172,1.897616 1122.055176,1.718607 1122.017090,1.269799 
	C1133.687622,1.000000 1145.375122,1.000000 1157.531372,1.000000 
z"/>
<path fill="#ACACAC" opacity="1.000000" stroke="none" 
	d="
M594.206116,19.010857 
	C594.203735,4.090155 594.203735,4.090028 608.443909,4.090189 
	C624.264526,4.090367 640.089478,3.865230 655.904053,4.175238 
	C665.481262,4.362976 675.210388,4.473850 684.060974,9.103817 
	C695.354370,15.011642 702.179443,24.234005 702.845520,37.013947 
	C703.534241,50.228092 697.536316,60.311108 686.255127,67.226707 
	C685.700317,67.566795 685.160706,67.931648 684.231384,68.532257 
	C694.299438,72.252052 702.462891,77.681335 706.788696,87.662239 
	C715.732727,108.298660 703.236267,136.436707 679.085388,139.828964 
	C667.308777,141.483154 655.277039,141.565033 643.348999,141.834595 
	C629.200989,142.154358 615.040161,141.911896 600.884888,141.908920 
	C594.218323,141.907532 594.208008,141.903137 594.207397,135.415024 
	C594.204041,96.779434 594.205811,58.143852 594.206116,19.010857 
M636.504333,81.794296 
	C631.768799,81.794296 627.033264,81.794296 622.441772,81.794296 
	C622.441772,94.453171 622.441772,106.161530 622.441772,117.968727 
	C637.008606,117.968727 651.152405,118.364815 665.260925,117.830505 
	C674.783081,117.469894 680.868347,110.389793 681.010620,101.229965 
	C681.168640,91.052032 675.579712,83.885262 665.840759,83.001541 
	C656.435852,82.148148 646.952332,82.161354 636.504333,81.794296 
M670.082764,54.690983 
	C675.460938,50.180569 677.278137,44.568172 675.155518,37.831718 
	C673.113464,31.351021 668.451416,28.115198 661.825623,27.863369 
	C651.226562,27.460529 640.619385,27.265459 630.014954,27.011780 
	C627.441284,26.950212 624.864807,27.002619 622.006714,27.002619 
	C622.006714,36.962315 622.081848,46.089554 621.966492,55.214390 
	C621.925354,58.467747 623.594849,59.056511 626.339905,59.026909 
	C634.482056,58.939098 642.664368,59.481396 650.756531,58.839073 
	C657.054932,58.339130 663.241882,56.434013 670.082764,54.690983 
z"/>
<path fill="#27AEE3" opacity="1.000000" stroke="none" 
	d="
M197.616898,101.473434 
	C195.554810,93.903427 193.639618,86.715858 191.355759,78.144714 
	C189.993240,82.897644 188.935760,86.338020 188.022125,89.816185 
	C183.885696,105.563583 179.687683,121.296196 175.754593,137.094559 
	C174.823334,140.835220 173.200760,142.205627 169.291336,141.951019 
	C163.652420,141.583771 157.960724,142.050507 152.316376,141.727539 
	C150.806366,141.641113 148.470978,140.272324 148.059418,138.994614 
	C137.922241,107.524330 127.990860,75.987747 118.046501,44.455498 
	C117.855667,43.850376 117.950272,43.155235 117.882256,42.003670 
	C125.642204,42.003670 133.262741,41.857506 140.864471,42.169701 
	C141.938522,42.213814 143.449890,44.338394 143.865479,45.760986 
	C149.313080,64.409088 154.597595,83.104828 159.932022,101.786034 
	C160.293365,103.051476 160.726608,104.296387 161.546280,106.868286 
	C164.589951,95.397911 167.316711,85.142395 170.031799,74.883789 
	C172.582260,65.247261 175.251984,55.639156 177.584244,45.949944 
	C178.290115,43.017448 179.300690,41.769379 182.507187,41.916531 
	C188.490524,42.191113 194.501602,42.156761 200.488739,41.927399 
	C203.467712,41.813278 204.413193,43.014797 205.084259,45.729668 
	C210.026718,65.724739 215.144501,85.676476 220.590530,107.154099 
	C223.348938,97.794670 225.717239,89.776100 228.075058,81.754433 
	C231.636856,69.636620 235.140976,57.501316 238.822037,45.419884 
	C239.216476,44.125336 240.591064,42.193607 241.566299,42.159943 
	C249.339920,41.891609 257.126892,42.010254 265.651276,42.010254 
	C262.987122,50.368237 260.540283,58.089760 258.064880,65.802132 
	C250.447327,89.535454 242.735840,113.239258 235.284195,137.024490 
	C234.166443,140.592316 232.781815,142.211090 228.833557,141.948532 
	C223.361481,141.584671 217.837997,141.667603 212.354370,141.930664 
	C209.247482,142.079712 207.987625,140.917175 207.254288,138.018341 
	C204.197998,125.937057 200.944778,113.905602 197.616898,101.473434 
z"/>
<path fill="#ACACAC" opacity="1.000000" stroke="none" 
	d="
M1098.855957,49.000008 
	C1098.855957,80.104958 1098.855957,110.709908 1098.855957,141.611938 
	C1090.489746,141.611938 1082.728882,141.611938 1074.428711,141.611938 
	C1074.428711,137.357361 1074.428711,133.117264 1074.428711,128.499191 
	C1069.779297,132.247894 1065.888550,135.964661 1061.456421,138.849701 
	C1048.099854,147.544067 1029.321777,145.224899 1017.702148,134.291519 
	C1003.132446,120.582420 1000.323669,103.339149 1001.756409,84.588089 
	C1002.499268,74.865730 1004.476624,65.597900 1010.115295,57.368713 
	C1024.122070,36.926857 1051.352295,33.954582 1069.452026,50.953072 
	C1070.030640,51.496414 1070.664307,51.980862 1072.143799,53.226532 
	C1072.143799,44.460659 1072.143921,36.587460 1072.143921,28.714256 
	C1072.143921,20.750191 1072.143799,12.786125 1072.143799,4.458170 
	C1081.155640,4.458170 1089.693481,4.458170 1098.856079,4.458170 
	C1098.856079,19.280071 1098.856079,33.890038 1098.855957,49.000008 
M1042.969360,121.960602 
	C1054.969727,125.600311 1065.035278,121.039276 1069.424805,109.284836 
	C1073.810669,97.540047 1073.215454,85.534386 1069.364136,73.726395 
	C1068.563721,71.272896 1067.098389,68.843582 1065.366699,66.918381 
	C1055.072266,55.473450 1036.282837,59.357056 1031.089478,74.114197 
	C1027.467529,84.406601 1028.104126,95.063530 1030.080566,105.582329 
	C1031.438721,112.809860 1035.666382,118.216293 1042.969360,121.960602 
z"/>
<path fill="#26AEE3" opacity="1.000000" stroke="none" 
	d="
M573.935547,84.009537 
	C573.895386,103.163170 573.857056,121.818817 573.797241,140.474380 
	C573.796326,140.759888 573.529846,141.044540 573.257996,141.588226 
	C565.118225,141.588226 556.860596,141.588226 548.024597,141.588226 
	C547.929993,139.792892 547.773438,138.045197 547.755554,136.296097 
	C547.554199,116.647446 547.548584,96.994781 547.120972,77.351227 
	C546.877991,66.190170 543.043457,61.849651 533.456482,60.427826 
	C523.952637,59.018330 514.551575,63.920742 511.989197,72.751457 
	C510.207794,78.890587 509.441559,85.482445 509.273529,91.899574 
	C508.889862,106.550110 509.152252,121.217560 509.152191,135.878143 
	C509.152191,137.674408 509.152161,139.470673 509.152161,141.553574 
	C500.399811,141.553574 492.133331,141.553574 483.430573,141.553574 
	C483.430573,95.971336 483.430573,50.311317 483.430573,4.398563 
	C491.805542,4.398563 500.066071,4.398563 508.947144,4.398563 
	C508.947144,20.817343 508.947144,37.170971 508.947144,54.962959 
	C511.353027,52.759735 512.733643,51.489876 514.120239,50.226463 
	C524.874756,40.427280 537.416748,37.771290 551.250000,41.481354 
	C565.632019,45.338593 572.677551,55.420395 573.775391,73.020531 
	C573.992798,76.507301 573.890503,80.014023 573.935547,84.009537 
z"/>
<path fill="#ACACAC" opacity="1.000000" stroke="none" 
	d="
M803.311646,134.317108 
	C786.864929,146.154266 769.478210,146.444382 751.403137,140.064713 
	C722.416077,129.833633 715.921997,94.256821 724.839844,71.544296 
	C732.423584,52.229706 747.025391,42.082150 767.123840,40.229355 
	C788.840698,38.227360 806.620483,46.129509 817.413147,65.534088 
	C829.764893,87.741821 824.944702,118.608414 803.311646,134.317108 
M796.147827,98.558098 
	C798.050171,90.482246 796.658203,82.620461 793.551880,75.248337 
	C790.496338,67.996552 784.788757,63.070141 776.723083,62.029175 
	C767.839050,60.882591 759.743652,62.627209 754.422607,70.751091 
	C746.036499,83.554382 746.213379,97.194069 752.532349,110.392197 
	C754.654541,114.824799 759.780090,118.915619 764.481323,120.815269 
	C779.600037,126.924286 794.195923,116.656960 796.147827,98.558098 
z"/>
<path fill="#ACACAC" opacity="1.000000" stroke="none" 
	d="
M917.626648,60.650311 
	C918.154480,77.990463 918.785950,94.939842 918.815186,111.890266 
	C918.832520,121.954781 920.009155,131.674118 924.640137,141.856567 
	C916.015381,141.856567 908.288513,142.019333 900.583313,141.683655 
	C899.407898,141.632446 898.038147,139.423889 897.288330,137.944519 
	C896.408020,136.207596 896.106750,134.177216 895.353271,131.581436 
	C893.564575,132.825531 891.916077,133.785141 890.482483,134.998672 
	C878.114441,145.467850 856.947021,147.129807 844.260498,138.814346 
	C834.827087,132.631180 830.907898,123.554588 831.475159,112.899010 
	C832.128174,100.631218 838.869873,91.812889 850.631287,88.162727 
	C862.141174,84.590607 874.050781,82.321114 885.729614,79.268127 
	C888.734802,78.482544 893.125366,79.315025 893.123535,73.868675 
	C893.121277,67.337654 890.688416,62.668999 885.415344,61.381420 
	C873.412048,58.450493 863.515625,58.871017 857.452271,72.643814 
	C849.940918,71.331100 842.333374,70.001595 834.733459,68.673416 
	C836.446106,55.036213 847.778320,43.760464 862.587524,41.202080 
	C874.136597,39.206902 885.773987,39.105587 897.156311,42.103184 
	C906.843140,44.654270 915.083374,49.313545 917.626648,60.650311 
M878.376160,97.925987 
	C874.062622,99.083313 869.609497,99.878029 865.464966,101.474136 
	C857.070435,104.706879 855.192200,114.501129 861.428589,121.043076 
	C866.470154,126.331734 872.595276,126.504227 878.915833,124.404823 
	C886.310974,121.948502 891.911438,117.344765 892.853027,109.105003 
	C893.395325,104.359055 892.951355,99.500404 892.951355,94.312790 
	C888.148254,95.521042 883.671204,96.647285 878.376160,97.925987 
z"/>
<path fill="#27AEE3" opacity="1.000000" stroke="none" 
	d="
M399.195740,46.143188 
	C416.468353,37.713966 433.575928,37.399986 450.378815,45.924763 
	C460.636963,51.129147 465.752350,60.616928 468.935303,71.654793 
	C460.314087,73.195518 452.011902,74.679222 443.926178,76.124245 
	C443.438873,75.571053 443.131897,75.370377 443.040405,75.097458 
	C439.383179,64.189079 434.665466,60.604343 424.281921,60.870682 
	C414.810150,61.113632 407.512939,66.608612 405.276855,76.217392 
	C402.912872,86.375511 402.929077,96.722939 405.691925,106.858124 
	C408.482330,117.094368 415.508606,122.510628 425.481140,122.608192 
	C434.949860,122.700829 440.277313,118.192383 443.599670,107.270233 
	C443.885040,106.332031 444.149963,105.387589 444.622589,103.765923 
	C453.084747,105.189598 461.492676,106.604156 470.314514,108.088348 
	C466.672150,123.112488 459.741547,134.900818 445.186646,140.497009 
	C427.265961,147.387268 401.171295,145.809937 387.265381,127.661446 
	C382.079163,120.892937 378.899872,113.340088 377.644989,104.960121 
	C375.925415,93.477257 376.094360,82.073669 379.637543,70.906342 
	C382.988770,60.344021 389.313507,52.047501 399.195740,46.143188 
z"/>
<path fill="#28AEE4" opacity="1.000000" stroke="none" 
	d="
M351.860596,75.013824 
	C351.888184,87.839935 351.871063,100.169456 351.958893,112.498230 
	C352.019836,121.056259 355.697968,123.748367 364.098877,121.529152 
	C365.842621,121.068512 367.564758,120.526115 369.723907,119.896965 
	C370.493500,126.802452 371.223938,133.356232 371.985779,140.192108 
	C360.507782,144.608154 349.181946,145.900864 337.751282,141.474579 
	C329.084595,138.118607 326.354980,130.539185 326.086090,122.192200 
	C325.528534,104.883362 325.489838,87.557755 325.247101,70.238907 
	C325.216827,68.080132 325.242981,65.920563 325.242981,63.158722 
	C321.288422,63.158722 317.559875,63.158722 313.541687,63.158722 
	C313.541687,55.970856 313.541687,49.380215 313.541687,42.151154 
	C317.247742,42.151154 320.969543,42.151154 325.243408,42.151154 
	C325.243408,36.253563 325.089081,30.968983 325.338470,25.703524 
	C325.412231,24.145958 326.200348,21.963322 327.383820,21.224058 
	C335.124573,16.388660 343.063812,11.870958 351.701355,6.801549 
	C351.701355,18.799232 351.701355,30.124033 351.701355,41.855194 
	C357.908112,41.855194 363.513153,41.855194 369.486755,41.855194 
	C369.486755,48.980114 369.486755,55.693817 369.486755,62.851608 
	C363.816284,62.851608 358.220154,62.851608 351.860626,62.851608 
	C351.860626,67.017677 351.860626,70.767296 351.860596,75.013824 
z"/>
<path fill="#ACACAC" opacity="1.000000" stroke="none" 
	d="
M987.131470,64.428757 
	C974.730164,62.868896 969.555542,66.361290 966.738525,78.215118 
	C965.788818,82.211578 965.113525,86.373093 965.069092,90.467369 
	C964.885681,107.384346 964.992188,124.304451 964.992188,141.559418 
	C955.308838,141.559418 947.077271,141.559418 938.442139,141.559418 
	C938.442139,108.638908 938.442139,75.767632 938.442139,42.446045 
	C946.182800,42.446045 954.067627,42.446045 962.470825,42.446045 
	C962.470825,46.221958 962.470825,50.136627 962.470825,55.472565 
	C965.266479,52.075520 967.140564,49.732632 969.083740,47.448467 
	C977.750061,37.261200 990.583740,38.904121 1000.018860,43.745262 
	C1000.987488,44.242294 1001.904541,46.542255 1001.568787,47.600636 
	C999.519470,54.061028 997.101074,60.404312 994.651306,67.216370 
	C992.045349,66.261101 989.780579,65.430878 987.131470,64.428757 
z"/>
<path fill="#2AAFE4" opacity="1.000000" stroke="none" 
	d="
M303.762939,118.999969 
	C303.762848,126.778847 303.762848,134.057739 303.762848,141.595306 
	C294.749756,141.595306 286.328033,141.595306 277.519043,141.595306 
	C277.519043,108.625374 277.519043,75.738937 277.519043,42.420029 
	C285.900452,42.420029 294.455200,42.420029 303.763062,42.420029 
	C303.763062,67.674568 303.763062,93.087280 303.762939,118.999969 
z"/>
<path fill="#29AFE4" opacity="1.000000" stroke="none" 
	d="
M852.527710,191.908112 
	C849.859680,200.262955 849.841980,208.379272 851.726624,216.433380 
	C853.570435,224.312988 858.700012,228.668213 865.799255,229.054825 
	C873.679321,229.483948 878.347717,226.152390 881.433655,217.911652 
	C881.775879,216.997772 882.171204,216.103775 882.712708,214.784241 
	C887.036682,216.104691 891.252380,217.392075 895.425964,218.666611 
	C890.971130,243.821304 861.672791,245.842316 848.612793,235.043854 
	C834.972107,223.765259 834.010864,208.837143 837.779114,193.171295 
	C843.027954,171.349838 870.259949,162.356461 887.477539,176.770157 
	C891.162903,179.855286 893.306824,184.781601 896.822083,189.804459 
	C891.497925,191.127472 887.882690,192.181885 884.196106,192.831512 
	C883.281677,192.992630 881.544800,192.092087 881.191284,191.255005 
	C878.552185,185.005814 873.949585,181.882324 867.221741,182.032928 
	C860.455627,182.184357 855.507446,185.273041 852.527710,191.908112 
z"/>
<path fill="#27AEE3" opacity="1.000000" stroke="none" 
	d="
M1084.994629,176.168930 
	C1085.059692,174.386169 1085.124634,173.082840 1085.205322,171.466003 
	C1089.300293,171.466003 1093.219604,171.466003 1097.574219,171.466003 
	C1097.574219,194.021194 1097.574219,216.686676 1097.574219,239.680237 
	C1093.955078,239.680237 1090.230835,239.680237 1086.199219,239.680237 
	C1086.072388,237.878983 1085.949585,236.134460 1085.858032,234.834274 
	C1081.472900,236.890915 1077.301147,239.913162 1072.724243,240.769135 
	C1063.596558,242.476227 1055.531982,237.207840 1051.923950,228.144440 
	C1048.535400,219.632523 1048.375122,210.896164 1051.655151,202.347687 
	C1056.792236,188.959045 1071.279785,185.076981 1082.596802,193.840927 
	C1083.091431,194.223969 1083.629639,194.550598 1084.994751,195.480606 
	C1084.994751,188.718430 1084.994751,182.683380 1084.994629,176.168930 
M1070.628784,199.878693 
	C1061.502319,204.890137 1059.895874,222.363190 1067.972656,228.768646 
	C1072.707520,232.523743 1079.443237,231.319626 1082.478638,225.689484 
	C1086.184326,218.815887 1086.063843,211.475632 1082.689819,204.571747 
	C1080.529297,200.150757 1076.436157,198.302780 1070.628784,199.878693 
z"/>
<path fill="#2DB0E4" opacity="1.000000" stroke="none" 
	d="
M1032.913330,190.125336 
	C1034.859497,190.125397 1036.345337,190.125397 1038.242920,190.125397 
	C1038.242920,206.766495 1038.242920,223.120422 1038.242920,239.747696 
	C1034.378052,239.747696 1030.622070,239.747696 1026.496948,239.747696 
	C1026.293823,238.008240 1026.090454,236.266083 1025.999878,235.490051 
	C1020.899841,237.329193 1015.740906,240.322510 1010.326538,240.893173 
	C1000.690369,241.908859 994.049194,236.269775 993.499268,226.621445 
	C992.820557,214.714417 993.337036,202.739273 993.337036,190.460052 
	C997.546936,190.460052 1001.629395,190.460052 1006.495056,190.460052 
	C1006.495056,195.480972 1006.463379,200.572098 1006.503723,205.662689 
	C1006.547180,211.152283 1006.549255,216.645706 1006.769409,222.129456 
	C1007.000854,227.892670 1009.104553,230.495850 1013.538330,230.993561 
	C1018.598511,231.561554 1023.457458,228.559006 1024.460449,223.602646 
	C1025.177856,220.057846 1025.145264,216.334457 1025.195923,212.687271 
	C1025.297241,205.398605 1025.225952,198.107559 1025.225952,190.125259 
	C1027.930420,190.125259 1030.191772,190.125259 1032.913330,190.125336 
z"/>
<path fill="#32B2E5" opacity="1.000000" stroke="none" 
	d="
M907.207581,233.859192 
	C907.207703,212.816574 907.207703,192.254761 907.207703,171.403870 
	C911.836304,171.403870 915.906433,171.403870 920.328735,171.403870 
	C920.328735,194.188660 920.328735,216.852783 920.328735,239.773773 
	C916.040161,239.773773 911.959351,239.773773 907.207458,239.773773 
	C907.207458,237.877274 907.207458,236.108627 907.207581,233.859192 
z"/>
<path fill="#2FB1E4" opacity="1.000000" stroke="none" 
	d="
M303.781067,24.683388 
	C303.010773,26.309706 302.272491,28.462637 301.466125,28.488434 
	C293.544678,28.741854 285.611938,28.641373 277.406921,28.641373 
	C277.406921,20.371651 277.406921,12.642687 277.406921,4.514707 
	C285.979828,4.514707 294.507507,4.514707 303.781525,4.514707 
	C303.781525,11.063759 303.781525,17.643332 303.781067,24.683388 
z"/>
<path fill="#AEAEAE" opacity="1.000000" stroke="none" 
	d="
M1122.055664,2.516826 
	C1133.726318,2.056042 1145.355591,2.035459 1157.443848,2.045768 
	C1157.902954,4.199693 1157.902954,6.322724 1157.902954,8.917759 
	C1153.584839,8.917759 1149.653931,8.917759 1145.210449,8.917759 
	C1145.210449,21.626040 1145.210449,33.868217 1145.210449,46.557228 
	C1141.821533,46.557228 1138.943481,46.557228 1135.306030,46.557228 
	C1135.306030,34.332878 1135.306030,21.967762 1135.306030,9.147757 
	C1130.660156,9.147757 1126.727539,9.147757 1122.014404,9.147757 
	C1122.014404,6.776655 1122.014404,4.866840 1122.055664,2.516826 
z"/>
<path fill="#FDFEFF" opacity="1.000000" stroke="none" 
	d="
M945.283569,210.741989 
	C947.875916,202.505875 952.393372,199.075439 958.949646,200.028229 
	C964.643372,200.855667 968.856018,206.434387 968.960205,213.659531 
	C968.998047,216.278122 968.788147,218.989014 968.129333,221.510956 
	C966.633301,227.237610 962.515320,230.329071 957.007202,230.330322 
	C951.538208,230.331558 947.287109,227.255264 945.919556,221.476761 
	C945.135132,218.162491 945.397644,214.600449 945.283569,210.741989 
z"/>
<path fill="#FFFFFF" opacity="1.000000" stroke="none" 
	d="
M637.003845,81.794083 
	C646.952332,82.161354 656.435852,82.148148 665.840759,83.001541 
	C675.579712,83.885262 681.168640,91.052032 681.010620,101.229965 
	C680.868347,110.389793 674.783081,117.469894 665.260925,117.830505 
	C651.152405,118.364815 637.008606,117.968727 622.441772,117.968727 
	C622.441772,106.161530 622.441772,94.453171 622.441772,81.794296 
	C627.033264,81.794296 631.768799,81.794296 637.003845,81.794083 
z"/>
<path fill="#FFFFFF" opacity="1.000000" stroke="none" 
	d="
M669.780518,54.922188 
	C663.241882,56.434013 657.054932,58.339130 650.756531,58.839073 
	C642.664368,59.481396 634.482056,58.939098 626.339905,59.026909 
	C623.594849,59.056511 621.925354,58.467747 621.966492,55.214390 
	C622.081848,46.089554 622.006714,36.962315 622.006714,27.002619 
	C624.864807,27.002619 627.441284,26.950212 630.014954,27.011780 
	C640.619385,27.265459 651.226562,27.460529 661.825623,27.863369 
	C668.451416,28.115198 673.113464,31.351021 675.155518,37.831718 
	C677.278137,44.568172 675.460938,50.180569 669.780518,54.922188 
z"/>
<path fill="#FFFFFF" opacity="1.000000" stroke="none" 
	d="
M1042.594727,121.831528 
	C1035.666382,118.216293 1031.438721,112.809860 1030.080566,105.582329 
	C1028.104126,95.063530 1027.467529,84.406601 1031.089478,74.114197 
	C1036.282837,59.357056 1055.072266,55.473450 1065.366699,66.918381 
	C1067.098389,68.843582 1068.563721,71.272896 1069.364136,73.726395 
	C1073.215454,85.534386 1073.810669,97.540047 1069.424805,109.284836 
	C1065.035278,121.039276 1054.969727,125.600311 1042.594727,121.831528 
z"/>
<path fill="#FFFFFF" opacity="1.000000" stroke="none" 
	d="
M796.118713,98.991600 
	C794.195923,116.656960 779.600037,126.924286 764.481323,120.815269 
	C759.780090,118.915619 754.654541,114.824799 752.532349,110.392197 
	C746.213379,97.194069 746.036499,83.554382 754.422607,70.751091 
	C759.743652,62.627209 767.839050,60.882591 776.723083,62.029175 
	C784.788757,63.070141 790.496338,67.996552 793.551880,75.248337 
	C796.658203,82.620461 798.050171,90.482246 796.118713,98.991600 
z"/>
<path fill="#FFFFFF" opacity="1.000000" stroke="none" 
	d="
M878.785156,97.849762 
	C883.671204,96.647285 888.148254,95.521042 892.951355,94.312790 
	C892.951355,99.500404 893.395325,104.359055 892.853027,109.105003 
	C891.911438,117.344765 886.310974,121.948502 878.915833,124.404823 
	C872.595276,126.504227 866.470154,126.331734 861.428589,121.043076 
	C855.192200,114.501129 857.070435,104.706879 865.464966,101.474136 
	C869.609497,99.878029 874.062622,99.083313 878.785156,97.849762 
z"/>
<path fill="#FCFEFF" opacity="1.000000" stroke="none" 
	d="
M1070.993896,199.763153 
	C1076.436157,198.302780 1080.529297,200.150757 1082.689819,204.571747 
	C1086.063843,211.475632 1086.184326,218.815887 1082.478638,225.689484 
	C1079.443237,231.319626 1072.707520,232.523743 1067.972656,228.768646 
	C1059.895874,222.363190 1061.502319,204.890137 1070.993896,199.763153 
z"/>
</svg>